<svg width="103" height="32" viewBox="0 0 103 32" fill="none" xmlns="http://www.w3.org/2000/svg">
<path d="M54.5045 8.04048C54.5045 9.19374 53.5753 10.1224 52.422 10.1224C51.2687 10.1224 50.3401 9.19374 50.3401 8.04048C50.3401 6.88723 51.2371 5.9586 52.422 5.9586C53.6079 5.9906 54.5045 6.91955 54.5045 8.04048ZM45.9197 12.2369V12.7495C45.9197 12.7495 44.9271 11.4676 42.8129 11.4676C39.3218 11.4676 36.5986 14.1264 36.5986 17.8099C36.5986 21.4617 39.2898 24.1522 42.8129 24.1522C44.9591 24.1522 45.9197 22.8389 45.9197 22.8389V23.3832C45.9197 23.6395 46.1124 23.8312 46.3684 23.8312H48.9626V11.787H46.3684C46.1124 11.7879 45.9197 12.0126 45.9197 12.2369ZM45.9197 19.9561C45.4397 20.661 44.4785 21.2697 43.3256 21.2697C41.2757 21.2697 39.7058 19.9884 39.7058 17.8099C39.7058 15.6317 41.2757 14.3504 43.3256 14.3504C44.4468 14.3504 45.4717 14.9911 45.9197 15.6637V19.9561ZM50.8848 11.7879H53.9596V23.8322H50.8848V11.7879ZM96.8182 11.4673C94.704 11.4673 93.7108 12.7492 93.7108 12.7492V5.9906H90.6359V23.8322H93.2308C93.4871 23.8322 93.6788 23.6078 93.6788 23.3835V22.8392C93.6788 22.8392 94.672 24.1525 96.7856 24.1525C100.277 24.1525 103 21.4626 103 17.8108C103 14.1591 100.277 11.4673 96.8182 11.4673ZM96.3056 21.2373C95.12 21.2373 94.1914 20.6293 93.7108 19.9241V15.6317C94.1914 14.9911 95.2163 14.3184 96.3056 14.3184C98.3555 14.3184 99.925 15.5997 99.925 17.7779C99.925 19.9561 98.3558 21.2373 96.3056 21.2373ZM89.0347 16.6893V23.8642H85.9592V17.0413C85.9592 15.0557 85.3186 14.2544 83.59 14.2544C82.6614 14.2544 81.7001 14.7351 81.0905 15.44V23.8325H78.0164V11.7882H80.4499C80.7062 11.7882 80.8986 12.0126 80.8986 12.2369V12.7495C81.7955 11.8202 82.9804 11.4676 84.1654 11.4676C85.5109 11.4676 86.6322 11.8526 87.5291 12.6212C88.6178 13.5181 89.0347 14.6711 89.0347 16.6893ZM70.5519 11.4673C68.4383 11.4673 67.4451 12.7492 67.4451 12.7492V5.9906H64.3703V23.8322H66.9644C67.2207 23.8322 67.4131 23.6078 67.4131 23.3835V22.8392C67.4131 22.8392 68.4063 24.1525 70.5199 24.1525C74.0116 24.1525 76.7342 21.4626 76.7342 17.8108C76.7662 14.1588 74.0437 11.4673 70.5519 11.4673ZM70.0393 21.2373C68.8543 21.2373 67.9257 20.6293 67.4451 19.9241V15.6317C67.9257 14.9911 68.9506 14.3184 70.0393 14.3184C72.0898 14.3184 73.659 15.5997 73.659 17.7779C73.659 19.9561 72.0898 21.2373 70.0393 21.2373ZM61.7114 11.4673C62.64 11.4673 63.1207 11.6279 63.1207 11.6279V14.4784C63.1207 14.4784 60.5582 13.6135 58.9569 15.4397V23.8638H55.8815V11.7879H58.4763C58.7326 11.7879 58.9243 12.0122 58.9243 12.2366V12.7492C59.5015 12.0762 60.7508 11.4673 61.7114 11.4673ZM29.7764 22.7429C29.6164 22.3586 29.4561 21.9423 29.2961 21.5897C29.0394 21.0133 28.7831 20.4684 28.5594 19.9561L28.5274 19.9241C26.3169 15.1191 23.9471 10.2507 21.4482 5.4463L21.3522 5.25365C21.0894 4.75525 20.8333 4.25336 20.5839 3.74809C20.2633 3.17114 19.9433 2.56315 19.4307 1.9862C18.4057 0.704946 16.9322 0 15.3629 0C13.761 0 12.3198 0.70495 11.2632 1.92189C10.7825 2.49819 10.4299 3.10683 10.1099 3.68377C9.85991 4.18872 9.60379 4.69061 9.3416 5.18934L9.24528 5.38197C6.77877 10.1864 4.37657 15.0551 2.16638 19.8598L2.13407 19.9234C1.91007 20.4367 1.65343 20.981 1.39712 21.557C1.23712 21.9096 1.07712 22.294 0.917128 22.7103C0.500496 23.8952 0.372173 25.0165 0.532809 26.17C0.885122 28.5726 2.48637 30.5898 4.69689 31.4874C5.52983 31.84 6.39477 32 7.29139 32C7.54771 32 7.86771 31.968 8.12435 31.9357C9.1816 31.8077 10.2705 31.4557 11.3278 30.8471C12.6411 30.1101 13.8903 29.0535 15.2996 27.5159C16.7088 29.0535 17.9901 30.1101 19.2713 30.8471C20.3289 31.4557 21.4175 31.8077 22.4744 31.9357C22.7308 31.9683 23.0514 32 23.3077 32C24.2047 32 25.1013 31.84 25.9019 31.4874C28.1444 30.5898 29.7137 28.5406 30.0663 26.17C30.3207 25.0491 30.1927 23.9285 29.7764 22.7429ZM15.3306 24.4085C13.6007 22.2303 12.4794 20.1804 12.0955 18.4512C11.9355 17.7142 11.9031 17.0736 11.9995 16.497C12.0631 15.9843 12.2558 15.5357 12.5121 15.1514C13.1207 14.2871 14.1457 13.7421 15.3309 13.7421C16.5165 13.7421 17.5734 14.2548 18.1501 15.1514C18.4064 15.5357 18.5984 15.9846 18.663 16.497C18.7587 17.0739 18.7267 17.7462 18.5667 18.4512C18.1811 20.1484 17.0598 22.1986 15.3306 24.4085ZM28.1105 25.914C27.8865 27.5796 26.7652 29.0215 25.196 29.6621C24.4274 29.9821 23.5941 30.0784 22.7618 29.9821C21.9612 29.8858 21.1599 29.6295 20.3276 29.1495C19.1744 28.5082 18.0214 27.5159 16.6759 26.042C18.7897 23.4478 20.071 21.077 20.5516 18.9635C20.7759 17.9702 20.8082 17.0736 20.7116 16.2403C20.5839 15.4397 20.2953 14.7027 19.847 14.0621C18.8534 12.6202 17.1875 11.7879 15.3303 11.7879C13.473 11.7879 11.8071 12.6529 10.8142 14.0621C10.3659 14.7027 10.0773 15.4397 9.94926 16.2403C9.82126 17.0736 9.85294 18.0022 10.1093 18.9635C10.5896 21.077 11.9028 23.4795 13.9847 26.074C12.6715 27.5476 11.4862 28.5409 10.3329 29.1815C9.49999 29.6621 8.69969 29.9184 7.89907 30.0141C7.03444 30.1104 6.20118 29.9821 5.46456 29.6941C3.89531 29.0535 2.77405 27.6116 2.55005 25.946C2.45406 25.1454 2.51773 24.3448 2.83837 23.4478C2.93405 23.1272 3.09468 22.8072 3.25468 22.4229C3.47899 21.9103 3.73467 21.3653 3.9913 20.821L4.02363 20.7573C6.2335 15.9843 8.60369 11.1156 11.0702 6.37523L11.1662 6.1826C11.4228 5.70261 11.6792 5.18998 11.9351 4.70935C12.1915 4.19672 12.4794 3.71609 12.8321 3.29945C13.5047 2.53147 14.4013 2.11452 15.3946 2.11452C16.3878 2.11452 17.2845 2.53147 17.9571 3.29945C18.3097 3.71705 18.5977 4.19768 18.854 4.70935C19.1107 5.18998 19.367 5.70261 19.6227 6.1826L19.719 6.37523C22.1479 11.1353 24.4866 15.9409 26.7339 20.7893V20.8213C26.9905 21.3346 27.2145 21.9106 27.4708 22.4239C27.6308 22.8075 27.7911 23.1275 27.8871 23.4482C28.1428 24.2802 28.2388 25.0814 28.1105 25.914Z" fill="#191825" fill-opacity="0.5"/>
</svg>
