<svg width="103" height="32" viewBox="0 0 103 32" fill="none" xmlns="http://www.w3.org/2000/svg">
<path d="M54.5035 8.04048C54.5035 9.19374 53.5743 10.1224 52.421 10.1224C51.2678 10.1224 50.3391 9.19374 50.3391 8.04048C50.3391 6.88723 51.2361 5.9586 52.421 5.9586C53.6069 5.9906 54.5035 6.91955 54.5035 8.04048ZM45.9188 12.2369V12.7495C45.9188 12.7495 44.9261 11.4676 42.8119 11.4676C39.3208 11.4676 36.5977 14.1264 36.5977 17.8099C36.5977 21.4617 39.2888 24.1522 42.8119 24.1522C44.9581 24.1522 45.9188 22.8389 45.9188 22.8389V23.3832C45.9188 23.6395 46.1114 23.8312 46.3674 23.8312H48.9616V11.787H46.3674C46.1114 11.7879 45.9188 12.0126 45.9188 12.2369ZM45.9188 19.9561C45.4388 20.661 44.4775 21.2697 43.3246 21.2697C41.2747 21.2697 39.7048 19.9884 39.7048 17.8099C39.7048 15.6317 41.2747 14.3504 43.3246 14.3504C44.4458 14.3504 45.4708 14.9911 45.9188 15.6637V19.9561ZM50.8838 11.7879H53.9586V23.8322H50.8838V11.7879ZM96.8173 11.4673C94.7031 11.4673 93.7098 12.7492 93.7098 12.7492V5.9906H90.635V23.8322H93.2298C93.4861 23.8322 93.6778 23.6078 93.6778 23.3835V22.8392C93.6778 22.8392 94.6711 24.1525 96.7846 24.1525C100.276 24.1525 102.999 21.4626 102.999 17.8108C102.999 14.1591 100.276 11.4673 96.8173 11.4673ZM96.3046 21.2373C95.119 21.2373 94.1904 20.6293 93.7098 19.9241V15.6317C94.1904 14.9911 95.2154 14.3184 96.3046 14.3184C98.3545 14.3184 99.9241 15.5997 99.9241 17.7779C99.9241 19.9561 98.3548 21.2373 96.3046 21.2373ZM89.0337 16.6893V23.8642H85.9583V17.0413C85.9583 15.0557 85.3176 14.2544 83.589 14.2544C82.6604 14.2544 81.6992 14.7351 81.0896 15.44V23.8325H78.0154V11.7882H80.449C80.7053 11.7882 80.8976 12.0126 80.8976 12.2369V12.7495C81.7945 11.8202 82.9794 11.4676 84.1644 11.4676C85.51 11.4676 86.6312 11.8526 87.5282 12.6212C88.6168 13.5181 89.0337 14.6711 89.0337 16.6893ZM70.5509 11.4673C68.4373 11.4673 67.4441 12.7492 67.4441 12.7492V5.9906H64.3693V23.8322H66.9635C67.2198 23.8322 67.4121 23.6078 67.4121 23.3835V22.8392C67.4121 22.8392 68.4053 24.1525 70.5189 24.1525C74.0107 24.1525 76.7332 21.4626 76.7332 17.8108C76.7652 14.1588 74.0427 11.4673 70.5509 11.4673ZM70.0383 21.2373C68.8533 21.2373 67.9247 20.6293 67.4441 19.9241V15.6317C67.9247 14.9911 68.9497 14.3184 70.0383 14.3184C72.0888 14.3184 73.658 15.5997 73.658 17.7779C73.658 19.9561 72.0888 21.2373 70.0383 21.2373ZM61.7104 11.4673C62.6391 11.4673 63.1197 11.6279 63.1197 11.6279V14.4784C63.1197 14.4784 60.5572 13.6135 58.9559 15.4397V23.8638H55.8805V11.7879H58.4753C58.7316 11.7879 58.9233 12.0122 58.9233 12.2366V12.7492C59.5006 12.0762 60.7498 11.4673 61.7104 11.4673ZM29.7754 22.7429C29.6154 22.3586 29.4551 21.9423 29.2951 21.5897C29.0385 21.0133 28.7821 20.4684 28.5585 19.9561L28.5265 19.9241C26.316 15.1191 23.9461 10.2507 21.4472 5.4463L21.3513 5.25365C21.0884 4.75525 20.8323 4.25336 20.583 3.74809C20.2623 3.17114 19.9423 2.56315 19.4297 1.9862C18.4048 0.704946 16.9312 0 15.3619 0C13.76 0 12.3188 0.70495 11.2622 1.92189C10.7816 2.49819 10.4289 3.10683 10.1089 3.68377C9.85893 4.18872 9.60281 4.69061 9.34062 5.18934L9.2443 5.38197C6.77779 10.1864 4.3756 15.0551 2.1654 19.8598L2.13309 19.9234C1.90909 20.4367 1.65246 20.981 1.39614 21.557C1.23614 21.9096 1.07615 22.294 0.916151 22.7103C0.49952 23.8952 0.371196 25.0165 0.531833 26.17C0.884146 28.5726 2.48539 30.5898 4.69591 31.4874C5.52885 31.84 6.3938 32 7.29042 32C7.54673 32 7.86673 31.968 8.12337 31.9357C9.18063 31.8077 10.2696 31.4557 11.3268 30.8471C12.6401 30.1101 13.8893 29.0535 15.2986 27.5159C16.7078 29.0535 17.9891 30.1101 19.2703 30.8471C20.3279 31.4557 21.4165 31.8077 22.4735 31.9357C22.7298 31.9683 23.0504 32 23.3067 32C24.2037 32 25.1003 31.84 25.9009 31.4874C28.1434 30.5898 29.7127 28.5406 30.0653 26.17C30.3197 25.0491 30.1917 23.9285 29.7754 22.7429ZM15.3296 24.4085C13.5997 22.2303 12.4785 20.1804 12.0945 18.4512C11.9345 17.7142 11.9022 17.0736 11.9985 16.497C12.0622 15.9843 12.2548 15.5357 12.5111 15.1514C13.1197 14.2871 14.1447 13.7421 15.3299 13.7421C16.5155 13.7421 17.5725 14.2548 18.1491 15.1514C18.4054 15.5357 18.5974 15.9846 18.662 16.497C18.7577 17.0739 18.7257 17.7462 18.5657 18.4512C18.1801 20.1484 17.0589 22.1986 15.3296 24.4085ZM28.1095 25.914C27.8855 27.5796 26.7643 29.0215 25.195 29.6621C24.4264 29.9821 23.5931 30.0784 22.7608 29.9821C21.9602 29.8858 21.1589 29.6295 20.3266 29.1495C19.1734 28.5082 18.0204 27.5159 16.6749 26.042C18.7888 23.4478 20.07 21.077 20.5506 18.9635C20.775 17.9702 20.8073 17.0736 20.7106 16.2403C20.583 15.4397 20.2943 14.7027 19.846 14.0621C18.8524 12.6202 17.1865 11.7879 15.3293 11.7879C13.4721 11.7879 11.8062 12.6529 10.8132 14.0621C10.3649 14.7027 10.0763 15.4397 9.94828 16.2403C9.82029 17.0736 9.85196 18.0022 10.1083 18.9635C10.5886 21.077 11.9019 23.4795 13.9837 26.074C12.6705 27.5476 11.4852 28.5409 10.332 29.1815C9.49901 29.6621 8.69871 29.9184 7.89809 30.0141C7.03347 30.1104 6.2002 29.9821 5.46358 29.6941C3.89433 29.0535 2.77307 27.6116 2.54908 25.946C2.45308 25.1454 2.51676 24.3448 2.83739 23.4478C2.93307 23.1272 3.0937 22.8072 3.2537 22.4229C3.47802 21.9103 3.73369 21.3653 3.99033 20.821L4.02265 20.7573C6.23253 15.9843 8.60272 11.1156 11.0692 6.37523L11.1652 6.1826C11.4219 5.70261 11.6782 5.18998 11.9342 4.70935C12.1905 4.19672 12.4785 3.71609 12.8311 3.29945C13.5037 2.53147 14.4004 2.11452 15.3936 2.11452C16.3869 2.11452 17.2835 2.53147 17.9561 3.29945C18.3088 3.71705 18.5968 4.19768 18.8531 4.70935C19.1097 5.18998 19.366 5.70261 19.6217 6.1826L19.718 6.37523C22.1469 11.1353 24.4856 15.9409 26.7329 20.7893V20.8213C26.9895 21.3346 27.2135 21.9106 27.4699 22.4239C27.6298 22.8075 27.7902 23.1275 27.8862 23.4482C28.1418 24.2802 28.2378 25.0814 28.1095 25.914Z" fill="white"/>
</svg>
