<svg width="190" height="32" viewBox="0 0 190 32" fill="none" xmlns="http://www.w3.org/2000/svg">
<mask id="mask0_15_2283" style="mask-type:luminance" maskUnits="userSpaceOnUse" x="0" y="0" width="190" height="32">
<path d="M189.123 0H0.519531V32H189.123V0Z" fill="white"/>
</mask>
<g mask="url(#mask0_15_2283)">
<mask id="mask1_15_2283" style="mask-type:luminance" maskUnits="userSpaceOnUse" x="0" y="0" width="190" height="32">
<path d="M189.123 0H0.519531V32H189.123V0Z" fill="white"/>
</mask>
<g mask="url(#mask1_15_2283)">
<path d="M74.4766 3.50239C74.4766 1.9221 75.7585 0.632812 77.3461 0.632812C78.9264 0.632812 80.2157 1.91473 80.2157 3.50239C80.1605 5.08268 78.827 6.31671 77.243 6.26145C75.7401 6.2062 74.5355 5.00164 74.4766 3.50239Z" fill="white"/>
</g>
<mask id="mask2_15_2283" style="mask-type:luminance" maskUnits="userSpaceOnUse" x="0" y="0" width="190" height="32">
<path d="M189.123 0H0.519531V32H189.123V0Z" fill="white"/>
</mask>
<g mask="url(#mask2_15_2283)">
<path d="M119.699 22.6172C119.699 21.0258 120.981 19.7402 122.558 19.7402C124.145 19.7402 125.431 21.0258 125.431 22.6172C125.431 24.2048 124.145 25.4904 122.558 25.4904C120.981 25.4904 119.699 24.2012 119.699 22.6172Z" fill="white"/>
</g>
<mask id="mask3_15_2283" style="mask-type:luminance" maskUnits="userSpaceOnUse" x="0" y="0" width="190" height="32">
<path d="M189.123 0H0.519531V32H189.123V0Z" fill="white"/>
</mask>
<g mask="url(#mask3_15_2283)">
<path d="M27.4477 21.3756C24.9834 21.3756 23.2631 19.4159 23.2631 16.6126C23.2631 13.813 24.9797 11.8533 27.4477 11.8533C29.9269 11.8533 31.6655 13.813 31.6655 16.6126C31.6619 19.4601 29.9674 21.3756 27.4477 21.3756ZM27.4477 7.66865C22.228 7.66865 18.4375 11.4297 18.4375 16.6126C18.4375 21.7955 22.2317 25.5565 27.4477 25.5565C32.6933 25.5565 36.4948 21.7955 36.4948 16.6163C36.4948 11.4297 32.6859 7.66865 27.4477 7.66865ZM68.9295 17.062C68.749 16.7121 68.5169 16.3842 68.248 16.0969L68.0896 15.9311L68.2554 15.7727C68.4948 15.5185 68.7416 15.2202 68.9737 14.8739L73.582 8.02228H67.9865L64.5238 13.382C64.3286 13.673 63.9344 13.8093 63.3414 13.8093H62.5494V3.67556C62.5494 1.64954 61.2896 1.37695 59.9229 1.37695H57.5875L57.5912 25.2913H62.5457V18.1229H63.0098C63.5735 18.1229 63.9566 18.1892 64.1371 18.4949L66.8703 23.6558C67.6365 25.0556 68.3954 25.295 69.8246 25.295H73.6335L70.8008 20.6204L68.9295 17.062ZM92.9986 7.63182C90.4753 7.63182 88.8655 8.75165 87.9667 9.70203L87.6683 10.0078L87.5615 9.59521C87.2963 8.57852 86.4048 8.02597 85.0603 8.02597H82.839L82.8538 25.295H87.7788V17.3383C87.7788 16.5573 87.8783 15.8869 88.0846 15.2681C88.6334 13.4041 90.1621 12.2401 92.0703 12.2401C93.6064 12.2401 94.2105 13.0505 94.2105 15.1502V22.6722C94.2105 24.4588 95.0356 25.2987 96.8296 25.2987H99.1687L99.1577 14.314C99.1577 9.93411 97.0248 7.63182 92.9986 7.63182ZM77.4093 8.02228H75.0739L75.0886 21.3756V25.2913H77.5788L77.6672 25.295L78.8312 25.2913H79.9842V25.2876H79.9952L80.0063 10.6487C79.9989 8.88058 79.1554 8.02228 77.4093 8.02228ZM46.7833 21.3756C44.3189 21.3756 42.5987 19.4159 42.5987 16.6126C42.5987 13.813 44.3189 11.8533 46.7833 11.8533C49.2587 11.8533 51.0011 13.813 51.0011 16.6126C50.9974 19.4601 49.3029 21.3756 46.7833 21.3756ZM46.7833 7.66865C41.5599 7.66865 37.7657 11.4297 37.7657 16.6126C37.7657 21.7955 41.5599 25.5565 46.7833 25.5565C52.0178 25.5565 55.8304 21.7955 55.8304 16.6163C55.8304 11.4297 52.0215 7.66865 46.7833 7.66865Z" fill="white"/>
</g>
</g>
<mask id="mask4_15_2283" style="mask-type:luminance" maskUnits="userSpaceOnUse" x="0" y="0" width="190" height="32">
<path d="M189.123 0H0.519531V32H189.123V0Z" fill="white"/>
</mask>
<g mask="url(#mask4_15_2283)">
<mask id="mask5_15_2283" style="mask-type:luminance" maskUnits="userSpaceOnUse" x="0" y="0" width="190" height="32">
<path d="M189.083 0.630859H0.519531V31.9604H189.083V0.630859Z" fill="white"/>
</mask>
<g mask="url(#mask5_15_2283)">
<mask id="mask6_15_2283" style="mask-type:luminance" maskUnits="userSpaceOnUse" x="0" y="0" width="190" height="32">
<path d="M189.123 0H0.519531V32H189.123V0Z" fill="white"/>
</mask>
<g mask="url(#mask6_15_2283)">
<path d="M152.311 21.3768C149.846 21.3768 148.126 19.4171 148.126 16.6139C148.126 13.8143 149.846 11.8546 152.311 11.8546C154.79 11.8546 156.528 13.8143 156.528 16.6139C156.528 19.4613 154.83 21.3768 152.311 21.3768ZM152.311 7.66992C147.087 7.66992 143.293 11.4309 143.293 16.6139C143.293 21.7968 147.08 25.5578 152.311 25.5578C157.549 25.5578 161.358 21.7968 161.358 16.6175C161.358 11.4309 157.545 7.66992 152.311 7.66992Z" fill="white"/>
</g>
<mask id="mask7_15_2283" style="mask-type:luminance" maskUnits="userSpaceOnUse" x="0" y="0" width="190" height="32">
<path d="M189.123 0H0.519531V32H189.123V0Z" fill="white"/>
</mask>
<g mask="url(#mask7_15_2283)">
<path d="M109.535 20.6099C106.842 20.6099 105.888 18.2634 105.888 16.0642C105.888 15.0917 106.135 11.9348 109.285 11.9348C110.846 11.9348 112.928 12.3842 112.928 16.2226C112.924 19.851 111.079 20.6099 109.535 20.6099ZM115.481 7.97858C114.545 7.97858 113.827 8.35063 113.466 9.03211L113.333 9.29734L113.105 9.09473C112.309 8.40589 110.883 7.5918 108.574 7.5918C103.969 7.5918 100.871 11.0471 100.871 16.1968C100.871 21.3392 104.08 24.9308 108.669 24.9308C110.235 24.9308 111.476 24.5624 112.456 23.8183L112.832 23.5347V24.0136C112.832 26.3232 111.34 27.5941 108.636 27.5941C107.318 27.5941 106.124 27.2736 105.325 26.9826C104.282 26.6658 103.667 26.931 103.247 27.9735L102.853 28.9386L102.3 30.3495L102.643 30.53C104.374 31.4509 106.629 31.9961 108.662 31.9961C112.854 31.9961 117.75 29.8522 117.75 23.811L117.764 7.96753H115.481" fill="white"/>
</g>
</g>
</g>
<mask id="mask8_15_2283" style="mask-type:luminance" maskUnits="userSpaceOnUse" x="0" y="0" width="190" height="32">
<path d="M189.123 0H0.519531V32H189.123V0Z" fill="white"/>
</mask>
<g mask="url(#mask8_15_2283)">
<mask id="mask9_15_2283" style="mask-type:luminance" maskUnits="userSpaceOnUse" x="0" y="0" width="190" height="32">
<path d="M189.123 0H0.519531V32H189.123V0Z" fill="white"/>
</mask>
<g mask="url(#mask9_15_2283)">
<path d="M9.11352 21.1734L5.10201 21.1697V16.381C5.10201 15.3532 5.49985 14.8265 6.37288 14.7012H9.10616C11.0548 14.7012 12.3146 15.9316 12.322 17.9207C12.322 19.9652 11.0917 21.1734 9.11352 21.1734ZM5.10201 8.25112V6.9913C5.10201 5.8862 5.56615 5.36312 6.5939 5.29682H8.6457C10.4028 5.29682 11.4563 6.35034 11.4563 8.11114C11.4563 9.45568 10.7343 11.0212 8.70832 11.0212H5.10201V8.25112ZM14.2265 13.0325L13.5045 12.6236L14.1344 12.0821C14.8748 11.4522 16.1014 10.0266 16.1014 7.56964C16.1014 3.80862 13.1877 1.38477 8.67517 1.38477H2.94338C1.60621 1.43265 0.534266 2.5267 0.519531 3.86387V25.1997H8.78199C13.7991 25.1997 17.0334 22.4701 17.0334 18.2412C17.0334 15.9721 15.9836 14.0234 14.2265 13.0325Z" fill="white"/>
</g>
<mask id="mask10_15_2283" style="mask-type:luminance" maskUnits="userSpaceOnUse" x="0" y="0" width="190" height="32">
<path d="M189.123 0H0.519531V32H189.123V0Z" fill="white"/>
</mask>
<g mask="url(#mask10_15_2283)">
<path d="M183.349 7.68728C181.294 7.69096 179.345 8.63766 178.063 10.2511L177.706 10.7005L177.426 10.1959C176.513 8.53084 174.947 7.69096 172.759 7.69096C170.471 7.69096 168.935 8.96551 168.221 9.72803L167.756 10.2327L167.576 9.56595C167.318 8.60819 166.463 8.08143 165.174 8.08143H163.104L163.082 25.2842H167.782V17.6884C167.782 17.0217 167.863 16.366 168.029 15.6771C168.478 13.8427 169.712 11.8682 171.786 12.0635C173.061 12.1887 173.687 13.1759 173.687 15.0804V25.2805H178.421V17.6847C178.421 16.8522 178.498 16.226 178.686 15.6072C179.062 13.8537 180.355 12.0561 182.355 12.0561C183.802 12.0561 184.34 12.8739 184.34 15.0804V22.7645C184.34 24.4995 185.114 25.2805 186.853 25.2805H189.063L189.066 14.2995C189.081 9.90853 187.147 7.68728 183.349 7.68728ZM140.571 19.3092C140.556 19.324 138.534 21.4605 135.871 21.4605C133.443 21.4605 130.993 19.9723 130.993 16.6496C130.993 13.7801 132.894 11.7725 135.616 11.7725C136.501 11.7725 137.502 12.0893 137.661 12.6197L137.683 12.7081C137.889 13.4633 138.578 13.9827 139.355 13.979L141.93 13.9827V11.7283C141.93 8.75554 138.155 7.68359 135.609 7.68359C130.172 7.68359 126.23 11.4667 126.23 16.6791C126.23 21.8878 130.131 25.6709 135.51 25.6709C140.177 25.6709 142.711 22.6024 142.737 22.5767L142.87 22.4109L140.829 19.0256L140.571 19.3092Z" fill="white"/>
</g>
</g>
</svg>
