<svg width="20" height="20" viewBox="0 0 20 20" fill="none" xmlns="http://www.w3.org/2000/svg">
<path fill-rule="evenodd" clip-rule="evenodd" d="M0 10C0 4.47715 4.47715 0 10 0C15.5229 0 20 4.47715 20 10C20 15.5229 15.5229 20 10 20C4.47715 20 0 15.5229 0 10ZM12.6647 8.46154C12.1594 7.58638 9.82041 6.21525 8.288 5.38396C7.68464 5.05662 7.38294 4.89295 7.13433 5.03648C6.88571 5.18002 6.87661 5.52314 6.8584 6.20935C6.81214 7.9521 6.83005 10.6633 7.33532 11.5385C7.8406 12.4136 10.1797 13.7847 11.712 14.616C12.3154 14.9434 12.6171 15.1071 12.8657 14.9635C13.1144 14.82 13.1234 14.4768 13.1416 13.7907C13.1879 12.0479 13.1699 9.33672 12.6647 8.46154Z" fill="#F411CF"/>
</svg>
