<svg width="46" height="36" viewBox="0 0 46 36" fill="none" xmlns="http://www.w3.org/2000/svg">
<path fill-rule="evenodd" clip-rule="evenodd" d="M18.3885 0H27.6115C36.3069 0 40.6545 -2.68221e-07 43.3559 2.63603C45.2159 4.45102 45.7953 7.02763 45.9756 11.2263C46.0115 12.059 46.0294 12.4753 45.8705 12.7531C45.7115 13.0308 45.077 13.3775 43.8078 14.0708C42.3984 14.8408 41.4457 16.3118 41.4457 18C41.4457 19.6882 42.3984 21.1592 43.8078 21.9292C45.077 22.6226 45.7115 22.9691 45.8705 23.247C46.0294 23.5246 46.0115 23.9411 45.9756 24.7736C45.7953 28.9723 45.2159 31.549 43.3559 33.3639C40.6545 36 36.3069 36 27.6115 36H18.3885C9.69306 36 5.34535 36 2.64403 33.3639C0.78409 31.549 0.204766 28.9723 0.0243314 24.7736C-0.0114565 23.9411 -0.0293507 23.5246 0.129579 23.247C0.288532 22.9691 0.923055 22.6226 2.19208 21.9292C3.60147 21.1592 4.55416 19.6882 4.55416 18C4.55416 16.3118 3.60147 14.8408 2.19208 14.0708C0.923055 13.3775 0.288532 13.0308 0.129579 12.753C-0.0293507 12.4753 -0.0114565 12.059 0.0243314 11.2263C0.204766 7.02763 0.78409 4.45102 2.64403 2.63603C5.34535 -2.68221e-07 9.69309 0 18.3885 0ZM31.1599 10.0568C31.8354 10.7158 31.8354 11.7842 31.1599 12.4432L17.3256 25.9432C16.6503 26.6022 15.5554 26.6022 14.88 25.9432C14.2047 25.2842 14.2047 24.2158 14.88 23.5568L28.7143 10.0568C29.3898 9.39776 30.4846 9.39776 31.1599 10.0568ZM28.7842 25.875C30.0578 25.875 31.09 24.8677 31.09 23.625C31.09 22.3823 30.0578 21.375 28.7842 21.375C27.511 21.375 26.4785 22.3823 26.4785 23.625C26.4785 24.8677 27.511 25.875 28.7842 25.875ZM17.2557 14.625C18.529 14.625 19.5615 13.6177 19.5615 12.375C19.5615 11.1324 18.529 10.125 17.2557 10.125C15.9823 10.125 14.95 11.1324 14.95 12.375C14.95 13.6177 15.9823 14.625 17.2557 14.625Z" fill="white"/>
</svg>
