<svg width="30" height="26" viewBox="0 0 30 26" fill="none" xmlns="http://www.w3.org/2000/svg">
<path fill-rule="evenodd" clip-rule="evenodd" d="M8.02326 0C5.76981 0 3.73207 0.567264 2.25301 1.95056C0.759935 3.347 0 5.42072 0 8.08108V17.9189C0 20.5794 0.759935 22.653 2.25301 24.0494C3.73207 25.4328 5.76981 26 8.02326 26H21.9767C24.2302 26 26.268 25.4328 27.7469 24.0494C29.2401 22.653 30 20.5794 30 17.9189V8.08108C30 5.42072 29.2401 3.347 27.7469 1.95056C26.268 0.567264 24.2302 0 21.9767 0H8.02326ZM25.0863 7.88756C25.5435 7.53162 25.6278 6.86965 25.2744 6.40901C24.9211 5.94836 24.2639 5.86349 23.8065 6.21944L16.0663 12.2433C15.4383 12.7323 14.5616 12.7323 13.9334 12.2433L6.1934 6.21944C5.73604 5.86349 5.07882 5.94836 4.72542 6.40901C4.37202 6.86965 4.45628 7.53162 4.91364 7.88756L12.6537 13.9115C14.0357 14.987 15.9642 14.987 17.3461 13.9115L25.0863 7.88756Z" fill="#BDC3C7"/>
</svg>
