<svg width="20" height="19" viewBox="0 0 20 19" fill="none" xmlns="http://www.w3.org/2000/svg">
<path d="M15.5791 11.4569L15.5791 11.4568L15.5748 11.4609C15.1975 11.8266 15.0248 12.3546 15.1105 12.8717L15.1105 12.8717L15.1118 12.8789L16.0007 17.7985C16.0007 17.7985 16.0007 17.7986 16.0007 17.7987C16.0408 18.0221 15.9467 18.2487 15.7587 18.3785L15.7586 18.3784L15.7477 18.3863C15.5622 18.5219 15.3139 18.5392 15.1091 18.4293L15.1091 18.4293L15.104 18.4267L10.6788 16.1186C10.6781 16.1183 10.6774 16.1179 10.6768 16.1176C10.453 15.9988 10.2068 15.9363 9.95807 15.9292L9.95093 15.929H9.94379H9.67279H9.63576L9.59914 15.9344C9.45132 15.9565 9.30415 16.0037 9.16711 16.078L4.74504 18.3948C4.62205 18.4558 4.48411 18.4776 4.34894 18.4574C4.02857 18.3931 3.81485 18.087 3.86568 17.7631L4.7548 12.848L4.75486 12.848L4.75616 12.8401C4.8415 12.3208 4.66939 11.7927 4.29457 11.4237L4.29177 11.421L0.680948 7.92112C0.680907 7.92108 0.680867 7.92104 0.680826 7.921C0.680809 7.92099 0.680791 7.92097 0.680774 7.92095C0.517954 7.76285 0.462154 7.52678 0.53606 7.31418L0.537401 7.31026C0.611682 7.09075 0.800422 6.93109 1.02799 6.89432L5.9853 6.17516C6.52913 6.11522 7.00538 5.78284 7.25 5.29361L7.25002 5.29362L7.25218 5.28919L9.43895 0.805822C9.46358 0.75946 9.4926 0.719092 9.52438 0.685531L9.58976 0.634676L9.62435 0.607776L9.65373 0.57527C9.65859 0.569887 9.66402 0.564638 9.67023 0.559506L9.72505 0.539392L9.73417 0.536042L9.74317 0.532339L9.8217 0.5H10.1142C10.313 0.527725 10.4855 0.649066 10.5778 0.826092L12.7937 5.28975C12.7939 5.29025 12.7942 5.29074 12.7944 5.29124C13.0271 5.76562 13.4779 6.09369 13.9971 6.17323L13.9971 6.17325L14.001 6.17382L18.971 6.89482L18.9721 6.89497C19.2049 6.92823 19.4002 7.08833 19.4789 7.30968C19.5473 7.52461 19.4863 7.7599 19.3207 7.91536L19.3191 7.91685L15.5791 11.4569Z" fill="white" stroke="#A8A8A8"/>
</svg>
