<svg width="40" height="40" viewBox="0 0 40 40" fill="none" xmlns="http://www.w3.org/2000/svg">
<rect width="40" height="40" rx="6" fill="#872BFF"/>
<path d="M9 11.5847C9 10.7095 9.46904 10 10.0476 10H29.9524C30.531 10 31 10.7095 31 11.5847C31 12.4599 30.531 13.1694 29.9524 13.1694H10.0476C9.46904 13.1694 9 12.4599 9 11.5847Z" fill="white"/>
<path d="M9 20C9 19.1248 9.46904 18.4151 10.0476 18.4151L21.5714 18.4156C22.15 18.4156 22.619 19.1251 22.619 20.0003C22.619 20.8755 22.15 21.585 21.5714 21.585L10.0476 21.5847C9.46904 21.5847 9 20.8751 9 20Z" fill="white"/>
<path d="M10.0476 26.8308C9.46904 26.8308 9 27.5402 9 28.4155C9 29.2905 9.46904 30 10.0476 30H27.8571C28.4357 30 28.9048 29.2905 28.9048 28.4155C28.9048 27.5402 28.4357 26.8308 27.8571 26.8308H10.0476Z" fill="white"/>
</svg>
