<svg width="32" height="40" viewBox="0 0 32 40" fill="none" xmlns="http://www.w3.org/2000/svg">
<path fill-rule="evenodd" clip-rule="evenodd" d="M16 37.9995L17.416 39.4114C17.2302 39.598 17.0094 39.746 16.7662 39.847C16.523 39.948 16.2623 40 15.999 40C15.7357 40 15.475 39.948 15.2318 39.847C14.9886 39.746 14.7678 39.598 14.582 39.4114L14.57 39.3974L14.536 39.3634L14.412 39.2374C13.707 38.5112 13.0136 37.7738 12.332 37.0255C10.6208 35.1504 8.98226 33.2104 7.42 31.2095C5.636 28.9096 3.812 26.3096 2.426 23.7417C1.07 21.2237 0 18.4957 0 15.9998C0 6.9219 7.184 0 16 0C24.816 0 32 6.9219 32 15.9998C32 18.4957 30.93 21.2237 29.574 23.7397C28.188 26.3116 26.366 28.9096 24.58 31.2095C22.3948 34.0088 20.0607 36.6886 17.588 39.2374L17.464 39.3634L17.43 39.3974L17.418 39.4094L16 37.9995ZM16 21.9997C17.5913 21.9997 19.1174 21.3675 20.2426 20.2423C21.3679 19.1171 22 17.591 22 15.9998C22 14.4085 21.3679 12.8824 20.2426 11.7572C19.1174 10.632 17.5913 9.99986 16 9.99986C14.4087 9.99986 12.8826 10.632 11.7574 11.7572C10.6321 12.8824 10 14.4085 10 15.9998C10 17.591 10.6321 19.1171 11.7574 20.2423C12.8826 21.3675 14.4087 21.9997 16 21.9997Z" fill="white"/>
</svg>
