<svg width="40" height="44" viewBox="0 0 40 44" fill="none" xmlns="http://www.w3.org/2000/svg">
<path d="M12.1668 22C11.0852 22 10.2084 22.97 10.2084 24.1667C10.2084 25.3633 11.0852 26.3333 12.1668 26.3333H27.8334C28.915 26.3333 29.7918 25.3633 29.7918 24.1667C29.7918 22.97 28.915 22 27.8334 22H12.1668Z" fill="white"/>
<path d="M10.2084 32.8334C10.2084 31.6368 11.0852 30.6667 12.1668 30.6667H20.0001C21.0817 30.6667 21.9584 31.6368 21.9584 32.8334C21.9584 34.0301 21.0817 35.0001 20.0001 35.0001H12.1668C11.0852 35.0001 10.2084 34.0301 10.2084 32.8334Z" fill="white"/>
<path fill-rule="evenodd" clip-rule="evenodd" d="M12.1667 2.49992C12.1667 1.30331 11.2899 0.333252 10.2084 0.333252C9.12681 0.333252 8.25002 1.30331 8.25002 2.49992V4.88329C3.78063 5.88705 0.416687 10.2588 0.416687 15.4999V32.8332C0.416687 38.8163 4.80057 43.6666 10.2084 43.6666H29.7917C35.1994 43.6666 39.5834 38.8163 39.5834 32.8332V15.4999C39.5834 10.2588 36.2193 5.88705 31.75 4.88329V2.49992C31.75 1.30331 30.8733 0.333252 29.7917 0.333252C28.7101 0.333252 27.8334 1.30331 27.8334 2.49992V4.66658H12.1667V2.49992ZM4.33335 17.6666H35.6667V32.8332C35.6667 36.4232 33.0364 39.3332 29.7917 39.3332H10.2084C6.96369 39.3332 4.33335 36.4232 4.33335 32.8332V17.6666Z" fill="white"/>
</svg>
