<svg width="151" height="32" viewBox="0 0 151 32" fill="none" xmlns="http://www.w3.org/2000/svg">
<path fill-rule="evenodd" clip-rule="evenodd" d="M10.0569 21.083C9.73713 20.7943 9.30963 20.617 8.8419 20.617H8.22145C7.78031 20.617 7.11622 20.029 7.11622 19.5396V16.9163V15.2615V12.0108H8.58009C9.56395 12.0108 10.3692 11.2235 10.3692 10.2614C10.3692 9.29943 9.56395 8.51208 8.58009 8.51208H7.11622V6.13136C7.11622 5.04334 6.20599 4.15399 5.09327 4.15399C3.98122 4.15399 3.07099 5.04334 3.07099 6.13136V8.51208H2.0469C1.06304 8.51208 0.257812 9.29943 0.257812 10.2614C0.257812 11.2235 1.06304 12.0108 2.0469 12.0108H3.07099C3.07099 14.9295 3.07099 17.6529 3.07099 20.5717C3.04304 21.1883 3.32599 21.8184 3.32599 21.8184C3.77531 22.9504 4.79054 23.8064 6.03213 24.0531C6.27145 24.1004 6.51895 24.1257 6.7719 24.1257H8.8419C9.8285 24.1257 10.6358 23.3357 10.6358 22.371C10.6358 22.0217 10.5301 21.6957 10.3487 21.4217C10.2662 21.297 10.168 21.1837 10.0569 21.083ZM44.9626 17.0556H37.1762C38.8058 22.4144 43.4244 20.5757 45.2599 19.7783C45.9287 19.4883 47.4308 20.2197 47.2508 21.4397C47.0708 22.659 45.4583 23.1924 45.4583 23.1924C45.4583 23.1924 43.4115 24.0157 40.9215 23.9211C36.3867 23.7484 33.1542 20.319 33.0171 15.8216C33.1549 11.3241 36.6444 7.72206 40.9296 7.72206C47.5971 7.72206 51.358 17.0556 46.8403 17.0556H44.9626ZM44.9626 14.3329C44.6251 12.3935 42.9908 10.8201 41.0694 10.8201C39.1487 10.8201 37.5035 12.3368 37.1762 14.3329H44.9626ZM57.8667 21.083C57.5469 20.7943 57.1194 20.617 56.6517 20.617H56.0312C55.5894 20.617 54.9253 20.029 54.9253 19.5396V16.9163V15.2615V12.0108H56.3899C57.3737 12.0108 58.179 11.2235 58.179 10.2614C58.179 9.29943 57.3737 8.51208 56.3899 8.51208H54.9253V6.13136C54.9253 5.04334 54.0158 4.15399 52.903 4.15399C51.791 4.15399 50.8808 5.04334 50.8808 6.13136V8.51208H49.856C48.8728 8.51208 48.0676 9.29943 48.0676 10.2614C48.0676 11.2235 48.8728 12.0108 49.856 12.0108H50.8808C50.8808 14.9295 50.8808 17.6529 50.8808 20.5717C50.8528 21.1883 51.1358 21.8184 51.1358 21.8184C51.5851 22.9504 52.6003 23.8064 53.8419 24.0531C54.0812 24.1004 54.328 24.1257 54.5817 24.1257H56.6517C57.6383 24.1257 58.4455 23.3357 58.4455 22.371C58.4455 22.0217 58.3399 21.6957 58.1585 21.4217C58.076 21.297 57.9778 21.1837 57.8667 21.083ZM19.2819 9.97611V21.8757C19.2819 22.963 20.1921 23.8531 21.3042 23.8531C22.4169 23.8531 23.3264 22.963 23.3264 21.8757V20.5603V19.8863L25.1346 17.8583L25.408 18.2256L28.9746 23.0297C29.608 23.8817 30.8387 24.0731 31.7101 23.4537C32.5814 22.835 32.7771 21.6317 32.1444 20.7797L28.048 15.2635L31.7128 11.1528C32.368 10.4181 32.2889 9.29276 31.5376 8.65208C30.7862 8.01207 29.6353 8.0894 28.9808 8.82408L25.8635 12.3208L23.3264 15.1669V8.90475V4.34066C23.3264 3.2533 22.4169 2.36328 21.3042 2.36328C20.1935 2.36328 19.2846 3.2513 19.2819 4.33666C19.2819 4.33799 19.2819 4.33932 19.2819 4.34066V9.97611ZM14.3449 7.83673C15.4569 7.83673 16.3671 8.72675 16.3671 9.8141V21.5563C16.3671 22.6437 15.4569 23.5337 14.3449 23.5337C13.2321 23.5337 12.3226 22.6437 12.3226 21.5563V9.8141C12.3226 8.72675 13.2321 7.83673 14.3449 7.83673Z" fill="white"/>
<path fill-rule="evenodd" clip-rule="evenodd" d="M100.064 15.7685C100.064 12.6785 102.42 10.1737 105.326 10.1737C106.173 10.1737 106.973 10.3864 107.682 10.7644C108.112 10.9938 108.508 11.2838 108.861 11.6244C108.872 11.6278 108.884 11.6318 108.895 11.6351C109.03 11.6824 109.176 11.7078 109.327 11.7078C110.041 11.7078 110.619 11.1424 110.619 10.4444C110.619 10.2144 110.556 9.9984 110.446 9.81307C110.438 9.8004 110.432 9.78707 110.426 9.77307C110.098 9.46906 109.743 9.19305 109.367 8.94838C108.133 8.14503 106.667 7.67969 105.093 7.67969C100.705 7.67969 97.1484 11.3011 97.1484 15.7685C97.1484 20.236 100.705 23.8574 105.093 23.8574C106.53 23.8574 107.878 23.4687 109.04 22.79C109.555 22.4887 110.034 22.1313 110.468 21.7246C110.472 21.718 110.475 21.712 110.478 21.706C110.568 21.534 110.619 21.3386 110.619 21.1313C110.619 20.434 110.041 19.8686 109.327 19.8686C109.133 19.8686 108.949 19.9099 108.784 19.9853C108.621 20.1366 108.449 20.2773 108.27 20.4066C108.269 20.4073 108.268 20.408 108.268 20.4086C108.255 20.4273 108.234 20.44 108.209 20.4493C107.917 20.6526 107.605 20.8266 107.277 20.966C106.673 21.222 106.015 21.3626 105.326 21.3626C102.42 21.3626 100.064 18.8579 100.064 15.7685ZM131.641 10.2891V9.31439C131.641 8.56837 131.016 7.95769 130.253 7.95769C129.49 7.95769 128.866 8.56837 128.866 9.31439V22.2173C128.866 22.9633 129.49 23.574 130.253 23.574C131.016 23.574 131.641 22.9633 131.641 22.2173V12.2585C133.491 10.2197 136.831 8.67571 138.03 12.2585V22.2173C138.03 22.9633 138.654 23.574 139.417 23.574C140.18 23.574 140.805 22.9633 140.805 22.2173V12.2585C143.513 9.59906 146.012 9.30306 147.481 12.2585V22.2173C147.481 22.9633 148.105 23.574 148.869 23.574C149.632 23.574 150.257 22.9633 150.257 22.2173V11.3458C149.875 9.79173 149.057 8.77704 148.03 8.23503C145.83 7.07367 142.671 8.08636 140.805 10.6291C140.677 10.2451 140.512 9.90107 140.316 9.59706C138.589 6.92567 134.427 7.30901 131.641 10.2891ZM119.55 7.67969C123.937 7.67969 127.494 11.3011 127.494 15.7685C127.494 20.236 123.937 23.8574 119.55 23.8574C115.162 23.8574 111.605 20.236 111.605 15.7685C111.605 11.3011 115.162 7.67969 119.55 7.67969ZM119.513 10.1737C122.252 10.1737 124.472 12.6785 124.472 15.7685C124.472 18.8579 122.252 21.3626 119.513 21.3626C116.773 21.3626 114.553 18.8579 114.553 15.7685C114.553 12.6785 116.773 10.1737 119.513 10.1737Z" fill="white"/>
<path fill-rule="evenodd" clip-rule="evenodd" d="M77.8005 0C86.838 0 94.1641 7.16348 94.1641 15.9997C94.1641 24.8365 86.838 32 77.8005 32C68.7636 32 61.4375 24.8365 61.4375 15.9997C61.4375 7.16348 68.7636 0 77.8005 0Z" fill="white"/>
</svg>
