<svg width="151" height="32" viewBox="0 0 151 32" fill="none" xmlns="http://www.w3.org/2000/svg">
<path fill-rule="evenodd" clip-rule="evenodd" d="M10.5579 21.0837C10.2381 20.7951 9.81061 20.6177 9.34288 20.6177H8.72243C8.28129 20.6177 7.6172 20.0297 7.6172 19.5404V16.917V15.2623V12.0115H9.08106C10.0649 12.0115 10.8702 11.2242 10.8702 10.2622C10.8702 9.30016 10.0649 8.51281 9.08106 8.51281H7.6172V6.13209C7.6172 5.04407 6.70697 4.15472 5.59424 4.15472C4.4822 4.15472 3.57197 5.04407 3.57197 6.13209V8.51281H2.54788C1.56402 8.51281 0.758789 9.30016 0.758789 10.2622C0.758789 11.2242 1.56402 12.0115 2.54788 12.0115H3.57197C3.57197 14.9303 3.57197 17.6537 3.57197 20.5724C3.54402 21.1891 3.82697 21.8191 3.82697 21.8191C4.27629 22.9511 5.29152 23.8071 6.53311 24.0538C6.77243 24.1011 7.01993 24.1265 7.27288 24.1265H9.34288C10.3295 24.1265 11.1367 23.3365 11.1367 22.3718C11.1367 22.0224 11.0311 21.6964 10.8497 21.4224C10.7672 21.2977 10.669 21.1844 10.5579 21.0837ZM45.4636 17.0563H37.6772C39.3067 22.4151 43.9254 20.5764 45.7608 19.779C46.4297 19.489 47.9317 20.2204 47.7517 21.4404C47.5717 22.6598 45.9592 23.1931 45.9592 23.1931C45.9592 23.1931 43.9124 24.0165 41.4224 23.9218C36.8877 23.7491 33.6552 20.3197 33.5181 15.8223C33.6558 11.3249 37.1454 7.72279 41.4306 7.72279C48.0981 7.72279 51.859 17.0563 47.3413 17.0563H45.4636ZM45.4636 14.3336C45.1261 12.3942 43.4917 10.8209 41.5704 10.8209C39.6497 10.8209 38.0045 12.3376 37.6772 14.3336H45.4636ZM58.3677 21.0837C58.0479 20.7951 57.6204 20.6177 57.1527 20.6177H56.5322C56.0904 20.6177 55.4263 20.0297 55.4263 19.5404V16.917V15.2623V12.0115H56.8908C57.8747 12.0115 58.6799 11.2242 58.6799 10.2622C58.6799 9.30016 57.8747 8.51281 56.8908 8.51281H55.4263V6.13209C55.4263 5.04407 54.5167 4.15472 53.404 4.15472C52.292 4.15472 51.3817 5.04407 51.3817 6.13209V8.51281H50.357C49.3738 8.51281 48.5686 9.30016 48.5686 10.2622C48.5686 11.2242 49.3738 12.0115 50.357 12.0115H51.3817C51.3817 14.9303 51.3817 17.6537 51.3817 20.5724C51.3538 21.1891 51.6367 21.8191 51.6367 21.8191C52.0861 22.9511 53.1013 23.8071 54.3429 24.0538C54.5822 24.1011 54.829 24.1265 55.0827 24.1265H57.1527C58.1392 24.1265 58.9465 23.3365 58.9465 22.3718C58.9465 22.0224 58.8408 21.6964 58.6595 21.4224C58.577 21.2977 58.4788 21.1844 58.3677 21.0837ZM19.7829 9.97684V21.8764C19.7829 22.9638 20.6931 23.8538 21.8052 23.8538C22.9179 23.8538 23.8274 22.9638 23.8274 21.8764V20.5611V19.887L25.6356 17.859L25.909 18.2263L29.4756 23.0304C30.109 23.8825 31.3397 24.0738 32.2111 23.4545C33.0824 22.8358 33.2781 21.6324 32.6454 20.7804L28.549 15.2643L32.2138 11.1535C32.869 10.4188 32.7899 9.29349 32.0386 8.65281C31.2872 8.0128 30.1363 8.09013 29.4817 8.82481L26.3645 12.3216L23.8274 15.1676V8.90548V4.34139C23.8274 3.25403 22.9179 2.36401 21.8052 2.36401C20.6945 2.36401 19.7856 3.25203 19.7829 4.33739C19.7829 4.33872 19.7829 4.34006 19.7829 4.34139V9.97684ZM14.8458 7.83746C15.9579 7.83746 16.8681 8.72748 16.8681 9.81484V21.5571C16.8681 22.6444 15.9579 23.5345 14.8458 23.5345C13.7331 23.5345 12.8236 22.6444 12.8236 21.5571V9.81484C12.8236 8.72748 13.7331 7.83746 14.8458 7.83746Z" fill="#191825" fill-opacity="0.5"/>
<path fill-rule="evenodd" clip-rule="evenodd" d="M100.566 15.769C100.566 12.6789 102.922 10.1742 105.828 10.1742C106.675 10.1742 107.475 10.3869 108.184 10.7649C108.614 10.9942 109.01 11.2842 109.364 11.6249C109.375 11.6282 109.386 11.6322 109.397 11.6356C109.532 11.6829 109.678 11.7082 109.829 11.7082C110.543 11.7082 111.121 11.1429 111.121 10.4449C111.121 10.2149 111.058 9.99886 110.948 9.81352C110.941 9.80086 110.934 9.78752 110.928 9.77352C110.6 9.46952 110.245 9.19351 109.87 8.94884C108.635 8.14549 107.169 7.68015 105.595 7.68015C101.208 7.68015 97.6506 11.3016 97.6506 15.769C97.6506 20.2364 101.208 23.8578 105.595 23.8578C107.032 23.8578 108.38 23.4691 109.542 22.7905C110.058 22.4891 110.536 22.1318 110.971 21.7251C110.974 21.7184 110.977 21.7124 110.98 21.7064C111.07 21.5344 111.121 21.3391 111.121 21.1318C111.121 20.4344 110.543 19.8691 109.829 19.8691C109.636 19.8691 109.452 19.9104 109.287 19.9857C109.123 20.1371 108.951 20.2777 108.772 20.4071C108.771 20.4077 108.77 20.4084 108.77 20.4091C108.757 20.4277 108.736 20.4404 108.711 20.4497C108.419 20.6531 108.107 20.8271 107.779 20.9664C107.176 21.2224 106.518 21.3631 105.828 21.3631C102.922 21.3631 100.566 18.8584 100.566 15.769ZM132.143 10.2895V9.31485C132.143 8.56883 131.519 7.95815 130.756 7.95815C129.993 7.95815 129.368 8.56883 129.368 9.31485V22.2178C129.368 22.9638 129.993 23.5745 130.756 23.5745C131.519 23.5745 132.143 22.9638 132.143 22.2178V12.2589C133.994 10.2202 137.333 8.67617 138.532 12.2589V22.2178C138.532 22.9638 139.156 23.5745 139.919 23.5745C140.682 23.5745 141.307 22.9638 141.307 22.2178V12.2589C144.016 9.59952 146.514 9.30351 147.983 12.2589V22.2178C147.983 22.9638 148.608 23.5745 149.371 23.5745C150.134 23.5745 150.759 22.9638 150.759 22.2178V11.3462C150.378 9.79219 149.56 8.7775 148.533 8.23549C146.332 7.07413 143.173 8.08682 141.307 10.6295C141.179 10.2455 141.014 9.90153 140.818 9.59752C139.092 6.92613 134.929 7.30947 132.143 10.2895ZM120.052 7.68015C124.439 7.68015 127.996 11.3016 127.996 15.769C127.996 20.2364 124.439 23.8578 120.052 23.8578C115.664 23.8578 112.107 20.2364 112.107 15.769C112.107 11.3016 115.664 7.68015 120.052 7.68015ZM120.015 10.1742C122.754 10.1742 124.974 12.6789 124.974 15.769C124.974 18.8584 122.754 21.3631 120.015 21.3631C117.275 21.3631 115.055 18.8584 115.055 15.769C115.055 12.6789 117.275 10.1742 120.015 10.1742Z" fill="#191825" fill-opacity="0.5"/>
<path fill-rule="evenodd" clip-rule="evenodd" d="M78.3027 -6.10352e-05C87.3402 -6.10352e-05 94.6663 7.16342 94.6663 15.9996C94.6663 24.8365 87.3402 31.9999 78.3027 31.9999C69.2658 31.9999 61.9397 24.8365 61.9397 15.9996C61.9397 7.16342 69.2658 -6.10352e-05 78.3027 -6.10352e-05Z" fill="#191825" fill-opacity="0.5"/>
</svg>
