<svg width="140" height="32" viewBox="0 0 140 32" fill="none" xmlns="http://www.w3.org/2000/svg">
<path d="M4.14491 30.7354C2.93093 29.8655 1.95611 28.309 1.95611 25.5479V18.2331H0.524352H0V17.6945V15.966V15.4267H0.524352H1.98593V11.6297V11.0911H2.50963H4.49556H5.01991V11.6297V15.4267H8.25935H8.78306V15.966V17.6945V18.2331H8.25935H5.01991V25.3359C5.01991 26.6171 5.32583 27.4337 5.7562 27.9477C6.37583 28.6863 7.28519 28.8296 7.8737 28.8296C7.97546 28.8296 8.07722 28.8296 8.15759 28.8243H8.15954C8.25028 28.8176 8.34361 28.8063 8.44278 28.7836L9.07991 28.6389V29.3076V31.1574V31.6134L8.63917 31.688C8.52509 31.708 8.37343 31.7267 8.19389 31.7394C8.04093 31.75 7.87306 31.7573 7.69611 31.7573C6.76472 31.7573 5.34787 31.598 4.14491 30.7354ZM13.5936 31.636H11.5785H11.0542V31.0967V15.8447V15.3054H11.5785H13.5638H14.0881V15.8447V17.5165C14.3824 17.1006 14.7162 16.7246 15.085 16.4006C15.9665 15.6274 17.0457 15.1541 18.2758 15.1541C18.4262 15.1541 18.5902 15.1634 18.7555 15.1821C18.9097 15.2001 19.0627 15.2261 19.2014 15.2621L19.6007 15.364V15.784V17.8158V18.5611L18.9123 18.3271C18.9065 18.3251 18.8378 18.3185 18.7367 18.3105C18.6161 18.3005 18.4709 18.2938 18.3355 18.2938C17.0418 18.2938 16.0786 18.9617 15.4065 19.937L15.4058 19.9363C14.5172 21.2276 14.118 23.0474 14.118 24.6379V31.0967V31.636H13.5936ZM21.7525 30.5861C20.8023 29.7455 20.182 28.5469 20.182 27.0037C20.182 24.21 21.8944 22.7381 23.9977 21.9662C25.9869 21.2369 28.3157 21.1576 29.7746 21.1576H30.1389C30.1214 19.9963 29.8356 19.2031 29.3631 18.6964C28.8128 18.1058 27.9734 17.8698 26.9889 17.8698C26.2973 17.8698 25.6077 17.9918 24.9531 18.2171C24.2731 18.4505 23.6295 18.7924 23.0585 19.2197L22.5964 19.5657L22.3028 19.0617L21.3844 17.4852L21.1562 17.0932L21.4945 16.7986C22.1407 16.2366 23.0294 15.7687 24.021 15.444C24.9939 15.1247 26.0685 14.9414 27.1075 14.9414C29.0519 14.9414 30.5744 15.5087 31.6206 16.6079C32.6582 17.6972 33.2033 19.2837 33.2033 21.3329V31.0967V31.636H32.679H30.7527H30.2283V31.0967V29.9128C29.8809 30.3155 29.4784 30.6781 29.0286 30.9847C28.1082 31.6107 26.9908 32 25.7444 32C24.2816 32 22.8122 31.5234 21.7525 30.5861ZM25.5584 24.3206C24.2932 24.7039 23.275 25.4319 23.275 26.8218C23.275 27.4364 23.5382 28.067 24.0593 28.5203C24.5259 28.9256 25.2052 29.1936 26.0996 29.1936C27.2605 29.1936 28.2029 28.6209 28.8808 27.7737C29.6969 26.7551 30.1395 25.3472 30.1395 24.032V23.8733H29.8044C28.678 23.8733 26.9597 23.8953 25.5584 24.3206ZM43.3482 31.636H41.1548H40.7977L40.6681 31.2907L34.9183 16.0387L34.6422 15.3054H35.4057H37.5693H37.9296L38.0586 15.6554L42.1776 26.8444L42.1795 26.8504C42.199 26.9044 42.2178 26.9604 42.2366 27.0171C42.2554 26.9604 42.2742 26.9044 42.2936 26.8504L42.2956 26.8444L46.4152 15.6554L46.5435 15.3054H46.9045H49.0382H49.8005L49.5276 16.0367L43.8375 31.2887L43.7079 31.636H43.3482ZM52.5953 29.5782C51.1207 28.0757 50.2328 25.9645 50.2328 23.486C50.2328 20.9223 51.0708 18.8444 52.4235 17.3772C53.8741 15.8033 55.9099 14.9414 58.1363 14.9414C60.2519 14.9414 61.8832 15.74 63.0169 17.0226C64.2568 18.4238 64.8842 20.3943 64.8842 22.5155C64.8842 22.6841 64.8757 22.8714 64.8634 23.0647C64.8544 23.2121 64.8375 23.404 64.8207 23.5954L64.7772 24.086H64.3008H53.4152C53.5513 25.5385 54.086 26.6911 54.8755 27.5157C55.8328 28.515 57.1751 29.0416 58.6399 29.0416C59.3846 29.0416 60.143 28.8836 60.8546 28.5976C61.5819 28.3063 62.2592 27.883 62.8244 27.361L63.2962 26.9251L63.6229 27.4857L64.5419 29.0622L64.7617 29.4402L64.4454 29.7362C63.7039 30.4301 62.7602 30.9954 61.7439 31.3867C60.7211 31.7807 59.6225 32 58.5809 32C56.197 32 54.0957 31.1081 52.5953 29.5782ZM55.0161 18.8764C54.3621 19.4797 53.8605 20.3163 53.5928 21.3702H61.751C61.624 20.275 61.2494 19.4337 60.7159 18.8378C60.0438 18.0878 59.102 17.7179 58.0773 17.7179C56.9178 17.7179 55.8412 18.1158 55.0161 18.8764ZM69.1153 31.0421C68.2831 30.4355 67.6291 29.3655 67.6291 27.4884V9.78051V9.24123H68.1534H70.1685H70.6929V9.78051V27.0337C70.6929 27.867 70.8569 28.319 71.0889 28.5509C71.2898 28.7523 71.5834 28.7989 71.8576 28.7989C71.927 28.7989 72.0132 28.7989 72.0501 28.7976C72.1123 28.7943 72.1804 28.7889 72.2478 28.7769L72.8564 28.6736V29.3076V31.1574V31.6134L72.4157 31.688C72.3217 31.704 72.2082 31.7207 72.0644 31.734C71.9146 31.748 71.7552 31.7573 71.5912 31.7573C70.9094 31.7573 69.9397 31.6427 69.1153 31.0421ZM76.3292 29.5055C74.8326 27.9683 73.9122 25.8312 73.9122 23.3947C73.9122 21.0016 74.8339 18.9011 76.3324 17.3912C77.8497 15.8613 79.9556 14.9414 82.2895 14.9414C84.6255 14.9414 86.7397 15.8627 88.2642 17.3925C89.7685 18.9031 90.6973 21.0029 90.6973 23.3947C90.6973 25.8292 89.7705 27.965 88.2694 29.5009C86.7436 31.0621 84.6274 32 82.2895 32C79.953 32 77.8465 31.0634 76.3292 29.5055ZM78.5504 19.467C77.6125 20.451 77.035 21.8255 77.035 23.3947C77.035 25.0199 77.6093 26.4218 78.5426 27.421C79.4928 28.4376 80.8182 29.0416 82.2895 29.0416C83.7641 29.0416 85.0986 28.4356 86.0553 27.4164C86.9938 26.4171 87.5739 25.0166 87.5739 23.3947C87.5739 21.8282 86.9912 20.455 86.0482 19.471C85.0908 18.4718 83.7602 17.8698 82.2895 17.8698C80.8221 17.8698 79.4999 18.4698 78.5504 19.467ZM95.9519 31.636H93.9368H93.4124V31.0967V9.78051V9.24123H93.9368H95.9519H96.4762V9.78051V21.1276H98.0985L102.386 15.512L102.544 15.3054H102.798H105.228H106.32L105.635 16.182L100.671 22.5381L106.191 30.7914L106.756 31.636H105.761H103.331H103.053L102.897 31.396L98.1044 24.0253H96.4762V31.0967V31.636H95.9519ZM108.201 30.5861C107.25 29.7455 106.63 28.5469 106.63 27.0037C106.63 24.21 108.342 22.7381 110.445 21.9662C112.434 21.2369 114.764 21.1576 116.223 21.1576H116.587C116.569 19.9963 116.284 19.2031 115.811 18.6964C115.261 18.1058 114.421 17.8698 113.437 17.8698C112.745 17.8698 112.056 17.9918 111.401 18.2171C110.721 18.4505 110.078 18.7924 109.507 19.2197L109.044 19.5657L108.751 19.0617L107.832 17.4852L107.604 17.0932L107.943 16.7986C108.589 16.2366 109.477 15.7687 110.469 15.444C111.442 15.1247 112.517 14.9414 113.556 14.9414C115.5 14.9414 117.022 15.5087 118.069 16.6079C119.106 17.6972 119.651 19.2837 119.651 21.3329V31.0967V31.636H119.127H117.201H116.676V31.0967V29.9128C116.329 30.3155 115.926 30.6781 115.476 30.9847C114.556 31.6107 113.439 32 112.193 32C110.73 32 109.26 31.5234 108.201 30.5861ZM112.006 24.3206C110.741 24.7039 109.723 25.4319 109.723 26.8218C109.723 27.4364 109.986 28.067 110.507 28.5203C110.974 28.9256 111.653 29.1936 112.548 29.1936C113.709 29.1936 114.65 28.6209 115.329 27.7737C116.144 26.7551 116.588 25.3472 116.588 24.032V23.8733H116.253C115.125 23.8733 113.408 23.8953 112.006 24.3206Z" fill="#191825" fill-opacity="0.5"/>
<path fill-rule="evenodd" clip-rule="evenodd" d="M131.256 16.8993C131.273 16.8886 131.291 16.8786 131.309 16.8673C130.509 14.4101 133.833 10.2592 140 3.31641C135.014 3.94502 131.159 5.24691 128.431 7.22075C128.697 11.2444 129.638 14.4708 131.256 16.8993Z" fill="#191825" fill-opacity="0.5"/>
<path fill-rule="evenodd" clip-rule="evenodd" d="M131.256 16.8993C131.273 16.8886 131.291 16.8786 131.309 16.8673C131.282 16.7839 131.26 16.6986 131.242 16.612C130.464 13.5695 130.148 10.0545 130.296 6.0675C129.624 6.42214 129.003 6.80611 128.431 7.22008C128.696 11.2437 129.638 14.4708 131.256 16.8993Z" fill="#191825" fill-opacity="0.13"/>
<path fill-rule="evenodd" clip-rule="evenodd" d="M133.308 20.4216C134.625 21.1142 135.716 21.4729 136.683 21.3009C130.186 18.6818 127.489 11.581 128.593 0C126.259 0.471961 124.364 1.56987 123.045 3.39972C121.896 4.99358 122.265 7.02008 123.206 9.72319C123.333 10.0865 123.485 12.0403 122.698 12.7663C122.409 13.0329 121.945 12.8223 121.543 12.5523C120.161 11.7457 119.013 11.753 118.098 12.5763C115.577 12.141 113.751 11.903 112.62 11.863C114.233 12.3856 116.098 12.9229 118.191 13.5509C119.085 13.8188 119.852 14.4495 120.456 15.4054C121.693 17.3606 125.198 18.4205 128.593 18.9238C129.866 19.1124 131.628 19.537 133.308 20.4216Z" fill="#191825" fill-opacity="0.5"/>
</svg>
