<svg width="140" height="32" viewBox="0 0 140 32" fill="none" xmlns="http://www.w3.org/2000/svg">
<path d="M4.14491 30.7364C2.93093 29.8665 1.95611 28.3099 1.95611 25.5488V18.2341H0.524352H0V17.6955V15.967V15.4277H0.524352H1.98593V11.6307V11.092H2.50963H4.49556H5.01991V11.6307V15.4277H8.25935H8.78306V15.967V17.6955V18.2341H8.25935H5.01991V25.3368C5.01991 26.6181 5.32583 27.4347 5.7562 27.9486C6.37583 28.6872 7.28519 28.8306 7.8737 28.8306C7.97546 28.8306 8.07722 28.8306 8.15759 28.8252H8.15954C8.25028 28.8186 8.34361 28.8072 8.44278 28.7846L9.07991 28.6399V29.3085V31.1584V31.6143L8.63917 31.689C8.52509 31.709 8.37343 31.7276 8.19389 31.7403C8.04093 31.751 7.87306 31.7583 7.69611 31.7583C6.76472 31.7583 5.34787 31.599 4.14491 30.7364ZM13.5936 31.637H11.5785H11.0542V31.0977V15.8456V15.3063H11.5785H13.5638H14.0881V15.8456V17.5175C14.3824 17.1015 14.7162 16.7256 15.085 16.4016C15.9665 15.6283 17.0457 15.155 18.2758 15.155C18.4262 15.155 18.5902 15.1644 18.7555 15.183C18.9097 15.201 19.0627 15.227 19.2014 15.263L19.6007 15.365V15.785V17.8168V18.5621L18.9123 18.3281C18.9065 18.3261 18.8378 18.3194 18.7367 18.3114C18.6161 18.3014 18.4709 18.2948 18.3355 18.2948C17.0418 18.2948 16.0786 18.9627 15.4065 19.938L15.4058 19.9373C14.5172 21.2285 14.118 23.0484 14.118 24.6389V31.0977V31.637H13.5936ZM21.7525 30.5871C20.8023 29.7465 20.182 28.5479 20.182 27.0047C20.182 24.2109 21.8944 22.7391 23.9977 21.9671C25.9869 21.2379 28.3157 21.1585 29.7746 21.1585H30.1389C30.1214 19.9973 29.8356 19.204 29.3631 18.6974C28.8128 18.1068 27.9734 17.8708 26.9889 17.8708C26.2973 17.8708 25.6077 17.9928 24.9531 18.2181C24.2731 18.4514 23.6295 18.7934 23.0585 19.2207L22.5964 19.5667L22.3028 19.0627L21.3844 17.4862L21.1562 17.0942L21.4945 16.7996C22.1407 16.2376 23.0294 15.7696 24.021 15.445C24.9939 15.1257 26.0685 14.9424 27.1075 14.9424C29.0519 14.9424 30.5744 15.5097 31.6206 16.6089C32.6582 17.6981 33.2033 19.2847 33.2033 21.3338V31.0977V31.637H32.679H30.7527H30.2283V31.0977V29.9138C29.8809 30.3164 29.4784 30.6791 29.0286 30.9857C28.1082 31.6117 26.9908 32.001 25.7444 32.001C24.2816 32.001 22.8122 31.5243 21.7525 30.5871ZM25.5584 24.3216C24.2932 24.7049 23.275 25.4328 23.275 26.8227C23.275 27.4373 23.5382 28.068 24.0593 28.5212C24.5259 28.9265 25.2052 29.1945 26.0996 29.1945C27.2605 29.1945 28.2029 28.6219 28.8808 27.7746C29.6969 26.7561 30.1395 25.3482 30.1395 24.033V23.8743H29.8044C28.678 23.8743 26.9597 23.8963 25.5584 24.3216ZM43.3482 31.637H41.1548H40.7977L40.6681 31.2917L34.9183 16.0396L34.6422 15.3063H35.4057H37.5693H37.9296L38.0586 15.6563L42.1776 26.8454L42.1795 26.8514C42.199 26.9054 42.2178 26.9614 42.2366 27.018C42.2554 26.9614 42.2742 26.9054 42.2936 26.8514L42.2956 26.8454L46.4152 15.6563L46.5435 15.3063H46.9045H49.0382H49.8005L49.5276 16.0376L43.8375 31.2897L43.7079 31.637H43.3482ZM52.5953 29.5792C51.1207 28.0766 50.2328 25.9655 50.2328 23.487C50.2328 20.9232 51.0708 18.8454 52.4235 17.3782C53.8741 15.8043 55.9099 14.9424 58.1363 14.9424C60.2519 14.9424 61.8832 15.741 63.0169 17.0235C64.2568 18.4248 64.8842 20.3953 64.8842 22.5164C64.8842 22.6851 64.8757 22.8724 64.8634 23.0657C64.8544 23.213 64.8375 23.405 64.8207 23.5963L64.7772 24.087H64.3008H53.4152C53.5513 25.5395 54.086 26.6921 54.8755 27.5167C55.8328 28.5159 57.1751 29.0425 58.6399 29.0425C59.3846 29.0425 60.143 28.8846 60.8546 28.5986C61.5819 28.3073 62.2592 27.884 62.8244 27.362L63.2962 26.926L63.6229 27.4867L64.5419 29.0632L64.7617 29.4412L64.4454 29.7371C63.7039 30.4311 62.7602 30.9964 61.7439 31.3877C60.7211 31.7816 59.6225 32.001 58.5809 32.001C56.197 32.001 54.0957 31.109 52.5953 29.5792ZM55.0161 18.8774C54.3621 19.4807 53.8605 20.3173 53.5928 21.3712H61.751C61.624 20.2759 61.2494 19.4347 60.7159 18.8387C60.0438 18.0888 59.102 17.7188 58.0773 17.7188C56.9178 17.7188 55.8412 18.1168 55.0161 18.8774ZM69.1153 31.043C68.2831 30.4364 67.6291 29.3665 67.6291 27.4893V9.78148V9.24219H68.1534H70.1685H70.6929V9.78148V27.0347C70.6929 27.868 70.8569 28.3199 71.0889 28.5519C71.2898 28.7532 71.5834 28.7999 71.8576 28.7999C71.927 28.7999 72.0132 28.7999 72.0501 28.7986C72.1123 28.7952 72.1804 28.7899 72.2478 28.7779L72.8564 28.6746V29.3085V31.1584V31.6143L72.4157 31.689C72.3217 31.705 72.2082 31.7216 72.0644 31.735C71.9146 31.749 71.7552 31.7583 71.5912 31.7583C70.9094 31.7583 69.9397 31.6437 69.1153 31.043ZM76.3292 29.5065C74.8326 27.9693 73.9122 25.8321 73.9122 23.3957C73.9122 21.0025 74.8339 18.9021 76.3324 17.3922C77.8497 15.8623 79.9556 14.9424 82.2895 14.9424C84.6255 14.9424 86.7397 15.8636 88.2642 17.3935C89.7685 18.904 90.6973 21.0039 90.6973 23.3957C90.6973 25.8301 89.7705 27.966 88.2694 29.5018C86.7436 31.063 84.6274 32.001 82.2895 32.001C79.953 32.001 77.8465 31.0644 76.3292 29.5065ZM78.5504 19.468C77.6125 20.4519 77.035 21.8265 77.035 23.3957C77.035 25.0209 77.6093 26.4228 78.5426 27.422C79.4928 28.4386 80.8182 29.0425 82.2895 29.0425C83.7641 29.0425 85.0986 28.4366 86.0553 27.4173C86.9938 26.4181 87.5739 25.0175 87.5739 23.3957C87.5739 21.8291 86.9912 20.4559 86.0482 19.472C85.0908 18.4728 83.7602 17.8708 82.2895 17.8708C80.8221 17.8708 79.4999 18.4708 78.5504 19.468ZM95.9519 31.637H93.9368H93.4124V31.0977V9.78148V9.24219H93.9368H95.9519H96.4762V9.78148V21.1285H98.0985L102.386 15.513L102.544 15.3063H102.798H105.228H106.32L105.635 16.1829L100.671 22.5391L106.191 30.7924L106.756 31.637H105.761H103.331H103.053L102.897 31.397L98.1044 24.0263H96.4762V31.0977V31.637H95.9519ZM108.201 30.5871C107.25 29.7465 106.63 28.5479 106.63 27.0047C106.63 24.2109 108.342 22.7391 110.445 21.9671C112.434 21.2379 114.764 21.1585 116.223 21.1585H116.587C116.569 19.9973 116.284 19.204 115.811 18.6974C115.261 18.1068 114.421 17.8708 113.437 17.8708C112.745 17.8708 112.056 17.9928 111.401 18.2181C110.721 18.4514 110.078 18.7934 109.507 19.2207L109.044 19.5667L108.751 19.0627L107.832 17.4862L107.604 17.0942L107.943 16.7996C108.589 16.2376 109.477 15.7696 110.469 15.445C111.442 15.1257 112.517 14.9424 113.556 14.9424C115.5 14.9424 117.022 15.5097 118.069 16.6089C119.106 17.6981 119.651 19.2847 119.651 21.3338V31.0977V31.637H119.127H117.201H116.676V31.0977V29.9138C116.329 30.3164 115.926 30.6791 115.476 30.9857C114.556 31.6117 113.439 32.001 112.193 32.001C110.73 32.001 109.26 31.5243 108.201 30.5871ZM112.006 24.3216C110.741 24.7049 109.723 25.4328 109.723 26.8227C109.723 27.4373 109.986 28.068 110.507 28.5212C110.974 28.9265 111.653 29.1945 112.548 29.1945C113.709 29.1945 114.65 28.6219 115.329 27.7746C116.144 26.7561 116.588 25.3482 116.588 24.033V23.8743H116.253C115.125 23.8743 113.408 23.8963 112.006 24.3216Z" fill="white"/>
<path fill-rule="evenodd" clip-rule="evenodd" d="M131.254 16.8993C131.272 16.8886 131.289 16.8786 131.307 16.8673C130.508 14.4101 133.832 10.2592 139.998 3.31641C135.013 3.94502 131.157 5.24691 128.43 7.22075C128.695 11.2444 129.637 14.4708 131.254 16.8993Z" fill="white"/>
<path fill-rule="evenodd" clip-rule="evenodd" d="M131.254 16.9001C131.272 16.8895 131.289 16.8795 131.307 16.8681C131.28 16.7848 131.258 16.6995 131.241 16.6128C130.462 13.5704 130.147 10.0554 130.294 6.06836C129.623 6.423 129.001 6.80696 128.43 7.22093C128.695 11.2446 129.637 14.4717 131.254 16.9001Z" fill="#191825" fill-opacity="0.13"/>
<path fill-rule="evenodd" clip-rule="evenodd" d="M133.309 20.4216C134.626 21.1142 135.717 21.4729 136.684 21.3009C130.187 18.6818 127.49 11.581 128.593 0C126.259 0.471961 124.365 1.56987 123.046 3.39972C121.897 4.99358 122.266 7.02008 123.207 9.72319C123.334 10.0865 123.486 12.0403 122.699 12.7663C122.41 13.0329 121.945 12.8223 121.544 12.5523C120.162 11.7457 119.014 11.753 118.099 12.5763C115.578 12.141 113.752 11.903 112.621 11.863C114.234 12.3856 116.098 12.9229 118.192 13.5509C119.086 13.8188 119.852 14.4495 120.457 15.4054C121.694 17.3606 125.198 18.4205 128.593 18.9238C129.867 19.1124 131.629 19.537 133.309 20.4216Z" fill="white"/>
</svg>
