<svg width="213" height="32" viewBox="0 0 213 32" fill="none" xmlns="http://www.w3.org/2000/svg">
<path d="M23.6812 19.2269C25.503 24.1624 30.9935 26.6888 35.9305 24.8713C40.8647 23.0412 43.3967 17.5562 41.5679 12.6193C39.7448 7.67663 34.2627 5.15448 29.3187 6.97619C24.3789 8.80497 21.8567 14.287 23.6812 19.2269Z" fill="white"/>
<path d="M11.4883 25.4221C16.7543 25.4221 21.0233 21.1531 21.0233 15.8871C21.0233 10.621 16.7543 6.35204 11.4883 6.35204C6.22223 6.35204 1.95325 10.621 1.95325 15.8871C1.95325 21.1531 6.22223 25.4221 11.4883 25.4221Z" fill="white"/>
<path d="M13.114 15.7854C13.114 16.757 12.3246 17.5535 11.353 17.5535C10.3772 17.5535 9.58923 16.7584 9.58923 15.7854C9.58923 14.8152 10.3772 14.0287 11.353 14.0287C12.3246 14.0301 13.114 14.8152 13.114 15.7854Z" fill="#191825" fill-opacity="0.5"/>
<path d="M34.3628 15.7854C34.3628 16.757 33.5762 17.5535 32.6046 17.5535C31.626 17.5535 30.8408 16.7584 30.8408 15.7854C30.8408 14.8152 31.626 14.0287 32.6046 14.0287C33.5776 14.0301 34.3628 14.8152 34.3628 15.7854Z" fill="#191825" fill-opacity="0.5"/>
<path d="M6.11389 15.7854C6.11389 18.6761 8.46517 21.0232 11.3559 21.0232C14.2396 21.0232 16.5894 18.6761 16.5894 15.7854C16.5894 12.9017 14.2382 10.5533 11.3559 10.5533C8.46658 10.5561 6.11389 12.9031 6.11389 15.7854ZM7.92007 15.7854C7.92007 13.8945 9.46499 12.3566 11.3587 12.3566C13.2496 12.3566 14.7861 13.8987 14.7861 15.7854C14.7861 17.6819 13.2496 19.2226 11.3587 19.2226C9.46499 19.224 7.92007 17.6848 7.92007 15.7854Z" fill="#191825" fill-opacity="0.5"/>
<path d="M27.3654 15.7854C27.3654 18.6761 29.7138 21.0232 32.6031 21.0232C35.4882 21.0232 37.8353 18.6761 37.8353 15.7854C37.8353 12.9017 35.4882 10.5533 32.6031 10.5533C29.7152 10.5561 27.3654 12.9031 27.3654 15.7854ZM29.1715 15.7854C29.1715 13.8945 30.7122 12.3566 32.6074 12.3566C34.4983 12.3566 36.0333 13.8987 36.0333 15.7854C36.0333 17.6819 34.4983 19.2226 32.6074 19.2226C30.7094 19.224 29.1715 17.6848 29.1715 15.7854Z" fill="#191825" fill-opacity="0.5"/>
<path d="M28.9518 5.97214C30.0561 5.56543 31.1858 5.36772 32.3014 5.33666C29.2624 3.97673 25.8224 3.28758 22.0109 3.28758C18.2291 3.28758 14.7382 3.99226 11.7006 5.29147C17.1982 5.4002 21.6677 9.70594 22.0533 15.1329C22.1465 13.8874 22.4515 12.656 22.9895 11.4895C24.1743 8.90947 26.294 6.95219 28.9518 5.97214Z" fill="white"/>
<path d="M41.15 9.62262C41.6471 7.49446 43.2245 5.3649 43.2245 5.3649L36.1452 5.36066C32.1756 2.79755 27.3544 1.43762 22.0135 1.43762C16.4693 1.43762 11.4631 2.83003 7.51608 5.4115L0.880249 5.41715C0.880249 5.41715 2.4393 7.52271 2.94344 9.63533C1.65271 11.3907 0.885898 13.5471 0.885898 15.8885C0.885898 21.7335 5.64353 26.4883 11.4914 26.4883C14.834 26.4883 17.8151 24.9306 19.7597 22.5102L22.0178 25.8909L24.2928 22.4805C25.3166 23.7825 26.637 24.8389 28.1847 25.5548C30.7592 26.7382 33.6442 26.8555 36.3006 25.874C41.7869 23.8447 44.6042 17.7285 42.5749 12.2493C42.219 11.2848 41.7332 10.4078 41.15 9.62262ZM22.0121 3.28899C25.8236 3.28899 29.2637 3.97813 32.3027 5.33948C31.1856 5.36913 30.0573 5.56825 28.953 5.97213C26.2953 6.95219 24.1756 8.90947 22.9936 11.4853C22.4555 12.6517 22.1519 13.8832 22.0573 15.1287C21.669 9.70452 17.1994 5.39879 11.7018 5.28722C14.738 3.99226 18.2275 3.28899 22.0121 3.28899ZM18.4986 20.6249C16.9763 22.8703 14.4005 24.3502 11.4885 24.3502C6.81988 24.3502 3.02111 20.5487 3.02111 15.8899C3.02111 11.2184 6.82129 7.42385 11.4885 7.42385C16.1558 7.42385 19.9546 11.2184 19.9546 15.8899C19.9546 16.1751 19.8995 16.4434 19.8698 16.7188C19.7286 18.1494 19.2682 19.4895 18.4986 20.6249ZM35.5592 23.8673C33.4381 24.6468 31.1376 24.5607 29.0829 23.6131C27.6255 22.9381 26.4322 21.8803 25.5722 20.567C25.222 20.036 24.9141 19.4726 24.6868 18.8555C24.4284 18.1578 24.2998 17.439 24.2306 16.7146C24.0894 15.2459 24.3027 13.7603 24.9353 12.3834C25.8843 10.3287 27.5733 8.76542 29.6944 7.98025C34.075 6.36472 38.9512 8.6115 40.5696 12.9907C42.1865 17.3698 39.9383 22.2461 35.5592 23.8673Z" fill="#191825" fill-opacity="0.5"/>
<path d="M55.7323 2.98677L52.6283 4.05862C52.6283 4.05862 52.6283 7.77548 52.6283 8.10875C52.3035 8.10875 49.1882 8.10875 49.1882 8.10875V10.8244C49.1882 10.8244 52.2075 10.8244 52.5351 10.8244C52.5351 11.1774 52.5351 19.5432 52.5351 19.5432C52.5351 23.6865 53.9459 25.3868 57.4156 25.3868C58.2954 25.3868 59.1356 25.278 59.9787 25.0478L60.1157 25.014L60.0775 22.1981L59.8403 22.2885C59.1582 22.5243 58.6244 22.6401 58.2121 22.6401C56.5824 22.6401 55.978 21.7236 55.978 19.2494C55.978 19.2494 55.978 11.176 55.978 10.8286C56.3084 10.8286 59.9476 10.8286 59.9476 10.8286V8.10875C59.9476 8.10875 56.3099 8.10875 55.978 8.10875C55.978 7.77265 55.978 2.90628 55.978 2.90628L55.7323 2.98677Z" fill="#191825" fill-opacity="0.5"/>
<path d="M66.4647 10.8596C66.4647 9.9036 66.4647 8.10872 66.4647 8.10872H63.3156V25.0874H66.7584V16.5648C66.7584 12.992 68.2596 11.0235 70.9795 11.0235C71.3734 11.0235 71.7562 11.0828 72.2222 11.2141L72.4453 11.2776L72.5583 7.92654L71.0769 7.81357C69.0815 7.81216 67.4702 8.88965 66.4647 10.8596Z" fill="#191825" fill-opacity="0.5"/>
<path d="M78.6944 8.10732H75.4351V25.0874H78.878V8.10732H78.6944ZM75.1018 3.13221C75.1018 4.26195 76.0225 5.17846 77.1495 5.17846C78.2792 5.17846 79.1971 4.26195 79.1971 3.13221C79.1971 2.00388 78.2792 1.08314 77.1495 1.08314C76.0225 1.08031 75.1018 2.00388 75.1018 3.13221Z" fill="#191825" fill-opacity="0.5"/>
<path d="M91.037 7.70911C88.6744 7.70911 86.6875 8.82755 85.3628 10.8625C85.3628 10.0491 85.3628 8.10452 85.3628 8.10452H82.2151V32H85.6608C85.6608 32 85.6608 23.6554 85.6608 22.7375C86.9035 24.4279 88.6857 25.3571 90.9042 25.3571C95.2566 25.3571 98.0682 21.7857 98.0682 16.2712C98.0682 11.1506 95.241 7.70911 91.037 7.70911ZM90.0753 22.5723C87.3512 22.5723 85.6594 20.2436 85.6594 16.5028C85.6594 12.8918 87.4444 10.5589 90.2066 10.5589C92.8686 10.5589 94.4601 12.7704 94.4601 16.4674C94.4615 20.2309 92.7796 22.5723 90.0753 22.5723Z" fill="#191825" fill-opacity="0.5"/>
<path d="M108.131 7.70911C106.026 7.70911 104.181 8.10734 102.489 8.92076L102.385 8.9716L102.422 11.9103L102.693 11.7578C104.31 10.854 105.841 10.3922 107.234 10.3922C109.728 10.3922 111.16 11.8214 111.16 14.3195C111.16 14.3195 111.16 14.3915 111.16 14.465C110.857 14.465 109.19 14.465 109.19 14.465C103.522 14.465 100.404 16.5183 100.404 20.2408C100.404 23.2304 102.655 25.3204 105.877 25.3204C108.248 25.3204 110.083 24.3884 111.39 22.6344C111.39 23.3165 111.39 25.086 111.39 25.086H114.501V14.811C114.5 10.1013 112.358 7.70911 108.131 7.70911ZM111.155 17.9192C111.155 20.8438 109.395 22.7361 106.672 22.7361C105.005 22.7361 103.841 21.6403 103.841 20.0727C103.841 18.0124 105.811 16.8812 109.387 16.8812C109.387 16.8812 110.859 16.8812 111.157 16.8812C111.155 17.1453 111.155 17.9192 111.155 17.9192Z" fill="#191825" fill-opacity="0.5"/>
<path d="M129.123 0C129.123 0 129.123 9.46584 129.123 10.412C127.853 8.64678 126.087 7.71192 123.817 7.71192C119.605 7.71192 116.775 11.1802 116.775 16.3347C116.775 21.6445 119.646 25.3529 123.748 25.3529C126.178 25.3529 128.074 24.2768 129.387 22.1853C129.387 23.0312 129.387 25.0888 129.387 25.0888H132.57V0H129.123ZM124.641 22.5031C122.017 22.5031 120.387 20.2154 120.387 16.5324C120.387 12.8452 122.031 10.4614 124.578 10.4614C127.423 10.4614 129.12 12.7294 129.12 16.5324C129.123 20.1659 127.369 22.5031 124.641 22.5031Z" fill="#191825" fill-opacity="0.5"/>
<path d="M147.955 8.10733L143.073 17.9121L138.56 8.10733H134.68L143.001 25.0874L151.547 8.10733H147.955Z" fill="#191825" fill-opacity="0.5"/>
<path d="M156.559 8.10732H153.299V25.0874H156.746V8.10732H156.559ZM152.97 3.13221C152.97 4.26195 153.889 5.17846 155.017 5.17846C156.151 5.17846 157.065 4.26195 157.065 3.13221C157.065 2.00388 156.149 1.08314 155.017 1.08314C153.89 1.08031 152.97 2.00388 152.97 3.13221Z" fill="#191825" fill-opacity="0.5"/>
<path d="M160.783 12.4611C160.783 14.8491 162.423 16.1073 165.454 17.5901C167.365 18.5292 168.363 19.0828 168.363 20.406C168.363 21.7631 167.137 22.6401 165.234 22.6401C163.888 22.6401 162.394 22.2616 160.914 21.5344L160.662 21.4101L160.551 24.4039L160.665 24.4463C162.08 25.0097 163.567 25.2851 165.104 25.2851C169.315 25.2851 172.033 23.2784 172.033 20.173C172.033 17.5845 170.312 16.2697 167.328 14.8773C165.143 13.8507 164.227 13.2533 164.227 12.1645C164.227 11.1336 165.246 10.4615 166.822 10.4615C168.246 10.4615 169.635 10.7778 170.95 11.4048L171.199 11.5192L171.348 8.59031L171.211 8.55077C169.785 8.12712 168.377 7.91388 167.022 7.91388C163.291 7.90823 160.783 9.73841 160.783 12.4611Z" fill="#191825" fill-opacity="0.5"/>
<path d="M182.777 7.70911C177.602 7.70911 174.39 11.1167 174.39 16.596C174.39 22.078 177.605 25.48 182.777 25.48C187.975 25.48 191.202 22.0766 191.202 16.596C191.202 11.1181 187.972 7.70911 182.777 7.70911ZM182.806 22.6712C179.947 22.6712 178.026 20.2168 178.026 16.5635C178.026 12.8904 179.947 10.4276 182.806 10.4276C185.713 10.4276 187.589 12.8381 187.589 16.5635C187.589 20.2747 185.715 22.6712 182.806 22.6712Z" fill="#191825" fill-opacity="0.5"/>
<path d="M197.553 10.8596C197.553 9.9036 197.553 8.10872 197.553 8.10872H194.404V25.0874H197.847V16.5648C197.847 12.992 199.34 11.0235 202.064 11.0235C202.455 11.0235 202.835 11.0828 203.292 11.2141L203.525 11.2776L203.633 7.92654L202.157 7.81357C200.17 7.81216 198.562 8.88965 197.553 10.8596Z" fill="#191825" fill-opacity="0.5"/>
<path d="M211.846 7.35604C212.411 7.92797 212.707 8.68773 212.707 9.50538C212.707 10.3597 212.388 11.1252 211.801 11.6886C211.188 12.2704 210.428 12.5825 209.634 12.5825C208.805 12.5825 208.043 12.2563 207.45 11.6434C206.883 11.056 206.563 10.3047 206.563 9.50256C206.563 8.6849 206.889 7.89267 207.499 7.29108C208.071 6.73045 208.807 6.42542 209.634 6.42542C210.483 6.42683 211.255 6.7488 211.846 7.35604ZM207.88 7.69355C207.383 8.19064 207.118 8.83036 207.118 9.50538C207.118 10.1635 207.363 10.7693 207.838 11.2522C208.314 11.7493 208.945 12.0176 209.622 12.0176C210.28 12.0176 210.912 11.7649 211.401 11.2904C211.881 10.8286 212.145 10.1959 212.145 9.50397C212.145 8.82753 211.899 8.21323 211.433 7.74298C210.945 7.24589 210.325 6.98464 209.634 6.98464C208.954 6.98464 208.356 7.22753 207.88 7.69355ZM209.691 7.75145C210.654 7.75145 211.148 8.10026 211.148 8.7315C211.148 9.16646 210.89 9.50397 210.431 9.64236L211.188 11.1237H210.162L209.531 9.7864H209.264V11.1237H208.335V7.75004L209.691 7.75145ZM209.257 9.23707H209.581C209.994 9.23707 210.193 9.09161 210.193 8.80211C210.193 8.47166 209.984 8.33609 209.531 8.33609H209.257V9.23707Z" fill="#191825" fill-opacity="0.5"/>
</svg>
