<svg width="213" height="32" viewBox="0 0 213 32" fill="none" xmlns="http://www.w3.org/2000/svg">
<path d="M23.1795 19.2275C25.0013 24.1631 30.4918 26.6895 35.4288 24.872C40.3629 23.0418 42.895 17.5569 41.0662 12.6199C39.2431 7.67729 33.761 5.15514 28.817 6.97685C23.8772 8.80562 21.355 14.2877 23.1795 19.2275Z" fill="white"/>
<path d="M10.9882 25.4216C16.2542 25.4216 20.5232 21.1527 20.5232 15.8866C20.5232 10.6205 16.2542 6.35156 10.9882 6.35156C5.72211 6.35156 1.45312 10.6205 1.45312 15.8866C1.45312 21.1527 5.72211 25.4216 10.9882 25.4216Z" fill="white"/>
<path d="M12.6107 15.786C12.6107 16.7576 11.8213 17.5541 10.8498 17.5541C9.87393 17.5541 9.08594 16.759 9.08594 15.786C9.08594 14.8159 9.87393 14.0293 10.8498 14.0293C11.8213 14.0307 12.6107 14.8159 12.6107 15.786Z" fill="white" fill-opacity="0.54"/>
<path d="M33.8618 15.786C33.8618 16.7576 33.0752 17.5541 32.1037 17.5541C31.125 17.5541 30.3398 16.759 30.3398 15.786C30.3398 14.8159 31.125 14.0293 32.1037 14.0293C33.0766 14.0307 33.8618 14.8159 33.8618 15.786Z" fill="white" fill-opacity="0.54"/>
<path d="M5.61328 15.7849C5.61328 18.6756 7.96456 21.0226 10.8553 21.0226C13.739 21.0226 16.0888 18.6756 16.0888 15.7849C16.0888 12.9012 13.7376 10.5527 10.8553 10.5527C7.96597 10.5556 5.61328 12.9026 5.61328 15.7849ZM7.41946 15.7849C7.41946 13.894 8.96438 12.3561 10.8581 12.3561C12.749 12.3561 14.2855 13.8982 14.2855 15.7849C14.2855 17.6814 12.749 19.2221 10.8581 19.2221C8.96438 19.2235 7.41946 17.6842 7.41946 15.7849Z" fill="white" fill-opacity="0.54"/>
<path d="M26.8633 15.7849C26.8633 18.6756 29.2117 21.0226 32.1011 21.0226C34.9861 21.0226 37.3332 18.6756 37.3332 15.7849C37.3332 12.9012 34.9861 10.5527 32.1011 10.5527C29.2132 10.5556 26.8633 12.9026 26.8633 15.7849ZM28.6695 15.7849C28.6695 13.894 30.2101 12.3561 32.1053 12.3561C33.9962 12.3561 35.5312 13.8982 35.5312 15.7849C35.5312 17.6814 33.9962 19.2221 32.1053 19.2221C30.2073 19.2235 28.6695 17.6842 28.6695 15.7849Z" fill="white" fill-opacity="0.54"/>
<path d="M28.4504 5.97166C29.5547 5.56496 30.6845 5.36725 31.8001 5.33618C28.7611 3.97625 25.321 3.28711 21.5095 3.28711C17.7277 3.28711 14.2368 3.99179 11.1992 5.29099C16.6968 5.39973 21.1664 9.70547 21.5519 15.1325C21.6451 13.8869 21.9501 12.6555 22.4882 11.4891C23.673 8.909 25.7927 6.95172 28.4504 5.97166Z" fill="white"/>
<path d="M40.6486 9.6225C41.1457 7.49434 42.7231 5.36477 42.7231 5.36477L35.6439 5.36054C31.6742 2.79743 26.853 1.4375 21.5122 1.4375C15.968 1.4375 10.9618 2.82991 7.01474 5.41137L0.378906 5.41702C0.378906 5.41702 1.93795 7.52258 2.4421 9.63521C1.15137 11.3905 0.384555 13.5469 0.384555 15.8883C0.384555 21.7334 5.14219 26.4882 10.99 26.4882C14.3327 26.4882 17.3138 24.9305 19.2583 22.5101L21.5164 25.8908L23.7914 22.4804C24.8153 23.7824 26.1357 24.8387 27.6834 25.5547C30.2578 26.7381 33.1429 26.8553 35.7992 25.8739C41.2855 23.8446 44.1028 17.7284 42.0735 12.2492C41.7177 11.2846 41.2319 10.4077 40.6486 9.6225ZM21.5108 3.28887C25.3222 3.28887 28.7623 3.97801 31.8013 5.33935C30.6843 5.36901 29.556 5.56813 28.4516 5.97201C25.7939 6.95206 23.6742 8.90935 22.4922 11.4852C21.9542 12.6516 21.6506 13.883 21.556 15.1286C21.1676 9.7044 16.6981 5.39866 11.2004 5.2871C14.2366 3.99213 17.7261 3.28887 21.5108 3.28887ZM17.9973 20.6248C16.4749 22.8702 13.8991 24.3501 10.9872 24.3501C6.31854 24.3501 2.51977 20.5485 2.51977 15.8898C2.51977 11.2183 6.31995 7.42373 10.9872 7.42373C15.6545 7.42373 19.4532 11.2183 19.4532 15.8898C19.4532 16.175 19.3981 16.4433 19.3685 16.7187C19.2273 18.1492 18.7669 19.4894 17.9973 20.6248ZM35.0578 23.8672C32.9367 24.6467 30.6363 24.5605 28.5816 23.613C27.1242 22.9379 25.9309 21.8802 25.0709 20.5669C24.7207 20.0359 24.4128 19.4725 24.1854 18.8553C23.927 18.1577 23.7985 17.4389 23.7293 16.7145C23.5881 15.2458 23.8013 13.7602 24.434 12.3833C25.383 10.3286 27.0719 8.7653 29.193 7.98013C33.5736 6.3646 38.4499 8.61138 40.0682 12.9905C41.6852 17.3697 39.437 22.246 35.0578 23.8672Z" fill="white" fill-opacity="0.54"/>
<path d="M55.2315 2.98674L52.1276 4.05859C52.1276 4.05859 52.1276 7.77545 52.1276 8.10872C51.8028 8.10872 48.6875 8.10872 48.6875 8.10872V10.8243C48.6875 10.8243 51.7067 10.8243 52.0344 10.8243C52.0344 11.1774 52.0344 19.5431 52.0344 19.5431C52.0344 23.6865 53.4451 25.3867 56.9149 25.3867C57.7946 25.3867 58.6349 25.278 59.478 25.0478L59.6149 25.0139L59.5768 22.198L59.3396 22.2884C58.6575 22.5243 58.1237 22.6401 57.7113 22.6401C56.0817 22.6401 55.4773 21.7235 55.4773 19.2494C55.4773 19.2494 55.4773 11.176 55.4773 10.8286C55.8077 10.8286 59.4469 10.8286 59.4469 10.8286V8.10872C59.4469 8.10872 55.8091 8.10872 55.4773 8.10872C55.4773 7.77262 55.4773 2.90625 55.4773 2.90625L55.2315 2.98674Z" fill="white"/>
<path d="M65.9656 10.8605C65.9656 9.90448 65.9656 8.1096 65.9656 8.1096H62.8164V25.0882H66.2593V16.5657C66.2593 12.9929 67.7604 11.0243 70.4803 11.0243C70.8743 11.0243 71.257 11.0837 71.723 11.215L71.9461 11.2785L72.0591 7.92743L70.5777 7.81445C68.5823 7.81304 66.971 8.89054 65.9656 10.8605Z" fill="white"/>
<path d="M78.1942 8.10817H74.9348V25.0882H78.3777V8.10817H78.1942ZM74.6016 3.13306C74.6016 4.26281 75.5223 5.17931 76.6492 5.17931C77.779 5.17931 78.6969 4.26281 78.6969 3.13306C78.6969 2.00473 77.779 1.08399 76.6492 1.08399C75.5223 1.08117 74.6016 2.00473 74.6016 3.13306Z" fill="white"/>
<path d="M90.5367 7.71094C88.1742 7.71094 86.1872 8.82938 84.8626 10.8643C84.8626 10.0509 84.8626 8.10635 84.8626 8.10635H81.7148V32.0018H85.1606C85.1606 32.0018 85.1606 23.6573 85.1606 22.7394C86.4033 24.4297 88.1855 25.359 90.404 25.359C94.7563 25.359 97.568 21.7875 97.568 16.273C97.568 11.1524 94.7408 7.71094 90.5367 7.71094ZM89.575 22.5741C86.8509 22.5741 85.1592 20.2454 85.1592 16.5046C85.1592 12.8936 86.9441 10.5607 89.7064 10.5607C92.3683 10.5607 93.9599 12.7722 93.9599 16.4693C93.9613 20.2327 92.2794 22.5741 89.575 22.5741Z" fill="white"/>
<path d="M107.63 7.70898C105.524 7.70898 103.68 8.10722 101.988 8.92063L101.884 8.97147L101.92 11.9102L102.191 11.7577C103.808 10.8539 105.339 10.3921 106.733 10.3921C109.227 10.3921 110.659 11.8213 110.659 14.3194C110.659 14.3194 110.659 14.3914 110.659 14.4649C110.355 14.4649 108.689 14.4649 108.689 14.4649C103.02 14.4649 99.9023 16.5182 99.9023 20.2407C99.9023 23.2303 102.153 25.3203 105.376 25.3203C107.747 25.3203 109.581 24.3882 110.889 22.6343C110.889 23.3164 110.889 25.0859 110.889 25.0859H114V14.8108C113.999 10.1012 111.856 7.70898 107.63 7.70898ZM110.653 17.919C110.653 20.8437 108.894 22.736 106.171 22.736C104.503 22.736 103.34 21.6401 103.34 20.0726C103.34 18.0122 105.31 16.8811 108.885 16.8811C108.885 16.8811 110.358 16.8811 110.656 16.8811C110.653 17.1452 110.653 17.919 110.653 17.919Z" fill="white"/>
<path d="M128.622 0C128.622 0 128.622 9.46584 128.622 10.412C127.352 8.64678 125.585 7.71192 123.316 7.71192C119.103 7.71192 116.273 11.1802 116.273 16.3347C116.273 21.6445 119.144 25.3529 123.247 25.3529C125.677 25.3529 127.572 24.2768 128.886 22.1853C128.886 23.0312 128.886 25.0888 128.886 25.0888H132.069V0H128.622ZM124.139 22.5031C121.515 22.5031 119.886 20.2154 119.886 16.5324C119.886 12.8452 121.53 10.4614 124.077 10.4614C126.921 10.4614 128.619 12.7294 128.619 16.5324C128.622 20.1659 126.868 22.5031 124.139 22.5031Z" fill="white"/>
<path d="M147.454 8.10742L142.572 17.9122L138.059 8.10742H134.18L142.5 25.0875L151.047 8.10742H147.454Z" fill="white"/>
<path d="M156.059 8.10817H152.798V25.0882H156.245V8.10817H156.059ZM152.469 3.13306C152.469 4.26281 153.388 5.17931 154.516 5.17931C155.65 5.17931 156.564 4.26281 156.564 3.13306C156.564 2.00473 155.648 1.08399 154.516 1.08399C153.389 1.08117 152.469 2.00473 152.469 3.13306Z" fill="white"/>
<path d="M160.282 12.4613C160.282 14.8493 161.923 16.1075 164.954 17.5903C166.865 18.5294 167.863 19.083 167.863 20.4062C167.863 21.7633 166.637 22.6403 164.734 22.6403C163.388 22.6403 161.894 22.2618 160.414 21.5346L160.162 21.4103L160.051 24.4041L160.165 24.4465C161.58 25.0099 163.067 25.2853 164.604 25.2853C168.815 25.2853 171.533 23.2786 171.533 20.1732C171.533 17.5847 169.812 16.2699 166.828 14.8775C164.643 13.8509 163.727 13.2535 163.727 12.1647C163.727 11.1338 164.746 10.4616 166.322 10.4616C167.746 10.4616 169.135 10.778 170.45 11.405L170.699 11.5194L170.848 8.59051L170.711 8.55097C169.285 8.12731 167.877 7.91408 166.521 7.91408C162.79 7.90843 160.282 9.73861 160.282 12.4613Z" fill="white"/>
<path d="M182.274 7.70898C177.099 7.70898 173.887 11.1166 173.887 16.5958C173.887 22.0779 177.102 25.4799 182.274 25.4799C187.472 25.4799 190.699 22.0765 190.699 16.5958C190.699 11.118 187.469 7.70898 182.274 7.70898ZM182.303 22.671C179.444 22.671 177.523 20.2167 177.523 16.5634C177.523 12.8903 179.444 10.4274 182.303 10.4274C185.21 10.4274 187.086 12.838 187.086 16.5634C187.086 20.2746 185.212 22.671 182.303 22.671Z" fill="white"/>
<path d="M197.051 10.8605C197.051 9.90448 197.051 8.1096 197.051 8.1096H193.902V25.0882H197.345V16.5657C197.345 12.9929 198.838 11.0243 201.562 11.0243C201.953 11.0243 202.333 11.0837 202.791 11.215L203.024 11.2785L203.131 7.92743L201.655 7.81445C199.668 7.81304 198.06 8.89054 197.051 10.8605Z" fill="white"/>
<path d="M211.345 7.35641C211.91 7.92834 212.207 8.68809 212.207 9.50575C212.207 10.3601 211.888 11.1255 211.3 11.689C210.687 12.2708 209.928 12.5829 209.134 12.5829C208.305 12.5829 207.542 12.2567 206.949 11.6438C206.383 11.0563 206.062 10.305 206.062 9.50292C206.062 8.68527 206.389 7.89304 206.999 7.29145C207.571 6.73081 208.306 6.42578 209.134 6.42578C209.983 6.42719 210.755 6.74917 211.345 7.35641ZM207.38 7.69392C206.883 8.19101 206.617 8.83072 206.617 9.50575C206.617 10.1638 206.863 10.7696 207.338 11.2526C207.814 11.7497 208.445 12.018 209.121 12.018C209.779 12.018 210.412 11.7652 210.901 11.2907C211.381 10.829 211.645 10.1963 211.645 9.50433C211.645 8.8279 211.399 8.2136 210.933 7.74334C210.445 7.24626 209.825 6.985 209.134 6.985C208.453 6.985 207.856 7.2279 207.38 7.69392ZM209.19 7.75182C210.154 7.75182 210.648 8.10063 210.648 8.73187C210.648 9.16682 210.389 9.50433 209.93 9.64273L210.687 11.1241H209.662L209.031 9.78677H208.764V11.1241H207.835V7.75041L209.19 7.75182ZM208.757 9.23743H209.08C209.494 9.23743 209.693 9.09198 209.693 8.80248C209.693 8.47203 209.484 8.33646 209.031 8.33646H208.757V9.23743Z" fill="white" fill-opacity="0.54"/>
</svg>
